<svg width="48" height="48" viewBox="0 0 48 48" fill="none" xmlns="http://www.w3.org/2000/svg">
<mask id="mask0" mask-type="alpha" maskUnits="userSpaceOnUse" x="0" y="0" width="48" height="48">
<rect width="47.2028" height="47.2028" fill="url(#paint0_linear)"/>
</mask>
<g mask="url(#mask0)">
<rect width="47.2028" height="47.2028" fill="url(#paint1_linear)"/>
<path d="M8.76737 14.1681C9.38229 13.072 8.58022 12.965 8.28613 12.2966C7.83163 13.4195 7.99204 13.6869 8.76737 14.1681Z" fill="white"/>
<path d="M11.4407 13.0454C10.9595 11.9225 10.2376 12.6711 9.43555 12.4572C10.1841 13.5801 11.1199 13.7672 11.4407 13.0454Z" fill="white"/>
<path d="M10.7727 15.4248C11.2806 14.9436 11.3876 14.3554 10.9598 13.5801C10.2647 14.3554 10.1043 14.9703 10.7727 15.4248Z" fill="white"/>
<path d="M11.7078 11.8956C12.0554 9.75671 10.6652 10.5053 10.1572 9.78345C9.97003 11.3341 10.4513 12.0827 11.7078 11.8956Z" fill="white"/>
<path d="M12.4571 10.0241C12.5908 8.79423 11.7888 8.7675 11.2273 8.25952C11.1204 9.51609 11.5749 10.0241 12.4571 10.0241Z" fill="white"/>
<path d="M7.59043 24.3277C7.51022 23.686 7.10919 23.3919 6.41406 23.4187C6.62795 24.1405 7.00225 24.4613 7.59043 24.3277Z" fill="white"/>
<path d="M8.71319 16.1735C8.20522 15.0238 7.37641 15.3981 6.49414 15.5853C7.10906 16.5478 7.85766 16.8953 8.71319 16.1735Z" fill="white"/>
<path d="M13.9266 8.31299C12.9908 8.58034 12.4561 9.03485 12.8304 9.86365C14.1405 9.97059 13.4721 9.222 13.9266 8.31299Z" fill="white"/>
<path d="M5.90648 21.1997C5.82627 22.2959 6.22731 22.8573 7.16305 22.8038C7.29673 21.4938 6.44119 21.5473 5.90648 21.1997Z" fill="white"/>
<path d="M7.0289 19.5688C7.18931 18.0716 6.25357 18.232 5.93274 17.7507C5.74559 19.0073 6.06642 19.3014 7.0289 19.5688Z" fill="white"/>
<path d="M15.4247 8.55373C15.9059 7.27042 15.1573 7.45757 14.5157 6.81592C14.3285 8.09923 14.6761 8.63394 15.4247 8.55373Z" fill="white"/>
<path d="M18.793 9.38251C19.3812 9.91722 19.702 9.19536 20.1297 9.11515C19.6485 8.68739 19.0603 8.8478 18.793 9.38251Z" fill="white"/>
<path d="M19.0869 8.41999C19.7286 8.66061 20.2098 8.52694 20.5039 7.99223C19.9425 7.61793 19.4612 7.80508 19.0869 8.41999Z" fill="white"/>
<path d="M18.0175 13.4197C18.8731 13.0721 18.4186 12.8315 18.579 12.1631C17.9641 12.27 17.7769 12.6978 18.0175 13.4197Z" fill="white"/>
<path d="M19.5153 13.6869C18.6598 13.473 18.3122 13.6869 18.4192 14.3286C18.9539 14.5157 19.2747 14.0879 19.5153 13.6869Z" fill="white"/>
<path d="M20.317 13.286C19.8625 12.6443 19.5149 13.1791 19.1406 13.1256C19.408 13.5801 19.809 13.6603 20.317 13.286Z" fill="white"/>
<path d="M17.9374 6.09409C18.1245 5.82673 17.9641 5.26528 18.2047 4.97119C17.0551 5.07813 16.8412 5.71979 17.0551 6.60206C17.2155 6.36144 17.7502 6.36144 17.9374 6.09409Z" fill="white"/>
<path d="M6.70849 20.558C6.7887 19.3549 5.9599 19.7024 5.47866 19.3281C5.39845 20.451 5.93316 20.6916 6.70849 20.558Z" fill="white"/>
<path d="M16.7611 6.78904C17.0017 6.28106 16.7878 5.88003 16.0927 5.58594C15.9858 6.20086 16.1195 6.65536 16.7611 6.78904Z" fill="white"/>
<path d="M18.3653 9.22213C18.8733 8.9013 19.0337 8.55374 18.7396 8.17944C18.2049 8.42006 18.1247 8.79436 18.3653 9.22213Z" fill="white"/>
<path d="M13.9277 9.54279C14.4624 9.78341 15.0239 10.1042 15.2645 9.22197C14.9704 8.7942 14.5159 8.92787 13.9277 9.54279Z" fill="white"/>
<path d="M18.6855 11.3342C18.6855 11.8155 19.0598 12.0293 19.4609 12.0561C19.755 12.0293 19.9956 11.8957 20.156 11.6283C20.3432 11.0669 20.1827 10.7193 19.8619 10.5322C19.648 10.4252 19.5411 10.7193 19.3539 10.6658C18.8994 10.5589 18.739 10.7728 18.6855 11.3342Z" fill="white"/>
<path d="M15.4773 31.3325C15.0763 31.3593 14.8356 31.7068 14.8624 32.4287C14.9158 33.311 15.2099 33.6585 15.9318 33.7387C16.4665 33.7922 17.1082 33.4714 17.3488 32.5891C17.3755 32.3217 17.3488 32.1079 17.2953 31.9207C17.429 31.787 17.4825 31.6266 17.429 31.4395C17.2151 31.386 17.0814 31.4395 16.9745 31.5999C16.7873 31.5197 16.5467 31.4929 16.1991 31.5464C15.9585 31.6266 15.7981 31.3325 15.4773 31.3325Z" fill="white"/>
<path d="M17.8834 31.7334C17.6427 32.3483 17.8834 32.8028 18.6587 33.0702C18.7924 32.3216 18.6052 31.8136 17.8834 31.7334Z" fill="white"/>
<path d="M18.1517 29.7283C18.1784 29.3006 17.9645 29.0332 17.3496 29.0332C17.4833 29.4877 17.7506 29.7283 18.1517 29.7283Z" fill="white"/>
<path d="M17.2157 30.7441C18.0445 30.557 17.483 30.0222 17.3761 29.6479C17.2157 30.0222 16.6542 29.9955 17.2157 30.7441Z" fill="white"/>
<path d="M19.8886 31.2522C19.5143 30.9581 19.1935 31.0116 18.8994 31.5196C19.4609 31.7067 19.8084 31.6265 19.8886 31.2522Z" fill="white"/>
<path d="M16.2532 30.3164C16.2265 30.7442 16.6275 31.1719 17.0018 30.9581C17.0286 30.3431 16.5473 30.4233 16.2532 30.3164Z" fill="white"/>
<path d="M12.1357 26.012C11.7881 26.3863 11.7614 26.7606 12.0822 27.1883C12.4833 26.7873 12.51 26.3863 12.1357 26.012Z" fill="white"/>
<path d="M12.6969 28.0707C12.4028 27.4825 12.0553 27.2953 11.6275 27.6696C11.5473 28.3915 12.1355 28.0974 12.6969 28.0707Z" fill="white"/>
<path d="M8.98089 26.0654C8.63333 26.7338 8.82048 27.2418 9.46213 27.5091C9.78296 26.8675 9.40866 26.6536 8.98089 26.0654Z" fill="white"/>
<path d="M20.2898 31.8137C20.0225 31.9207 19.969 32.2148 20.1027 32.696C20.5839 32.3484 20.5839 32.0811 20.2898 31.8137Z" fill="white"/>
<path d="M5.37159 27.3489C5.39833 27.3489 5.42506 27.3489 5.42506 27.3221C5.31812 27.5093 5.26465 27.8034 5.26465 28.1777C5.31812 29.0599 5.61221 29.4075 6.33407 29.4877C6.86878 29.5412 7.51044 29.2204 7.75106 28.3381C7.83126 27.5628 7.51044 27.135 6.60143 27.2954C6.36081 27.3756 6.20039 27.0815 5.9063 27.0548C6.06672 26.9211 6.20039 26.734 6.2806 26.5201C5.71915 26.3597 5.37159 26.5735 5.37159 27.3489Z" fill="white"/>
<path d="M8.36621 29.0064C7.85824 28.9796 7.67109 29.4876 7.77803 30.557C8.47316 30.1827 8.66031 29.6748 8.36621 29.0064Z" fill="white"/>
<path d="M14.194 31.5997C14.5416 31.1987 14.5416 30.8511 14.1406 30.5837C13.4454 31.0115 13.793 31.2521 14.194 31.5997Z" fill="white"/>
<path d="M11.093 27.4022C11.494 27.4556 11.7079 27.1348 11.7346 26.6001C11.1999 26.7338 11.0128 27.0011 11.093 27.4022Z" fill="white"/>
<path d="M6.03966 26.1458C5.90599 25.5843 5.42475 25.3972 4.64941 25.5843C5.13065 26.3329 4.99698 26.5201 6.03966 26.1458Z" fill="white"/>
<path d="M6.3607 25.0764C6.52111 24.3813 6.03987 24.0337 5.13086 23.9268C5.29127 24.6486 5.31801 25.2635 6.3607 25.0764Z" fill="white"/>
<path d="M11.3604 32.1881C12.002 32.0811 12.4298 31.7336 12.5902 31.0919C11.7614 30.9582 11.3871 31.3593 11.3604 32.1881Z" fill="white"/>
<path d="M9.1416 29.5144C9.86346 29.8887 10.3447 29.7818 10.5853 29.1668C10.1576 28.7925 9.67631 28.8727 9.1416 29.5144Z" fill="white"/>
<path d="M13.4195 32.9366C13.9007 32.5891 14.0344 32.188 13.767 31.787C13.0452 31.7335 12.9382 32.1078 13.4195 32.9366Z" fill="white"/>
<path d="M10.7453 31.5998C11.3067 30.7175 11.387 30.0758 10.879 29.7283C9.99671 30.1828 10.0769 30.8512 10.7453 31.5998Z" fill="white"/>
<path d="M39.6466 25.0764C40.6893 25.2368 40.716 24.6486 40.8764 23.9268C39.9942 24.0604 39.4862 24.408 39.6466 25.0764Z" fill="white"/>
<path d="M33.2036 9.89051C33.5511 9.0617 33.0432 8.6072 32.1074 8.33984C32.5352 9.22212 31.8668 9.97071 33.2036 9.89051Z" fill="white"/>
<path d="M31.492 6.81592C30.8503 7.45757 30.1017 7.27042 30.583 8.55373C31.3316 8.63394 31.6791 8.09923 31.492 6.81592Z" fill="white"/>
<path d="M34.7808 8.23291C34.2193 8.76762 33.4172 8.76762 33.5509 9.99746C34.4332 10.0242 34.8877 9.51622 34.7808 8.23291Z" fill="white"/>
<path d="M30.7441 9.19533C31.0115 10.0776 31.5729 9.75678 32.0809 9.51616C31.4927 8.92798 31.0382 8.7943 30.7441 9.19533Z" fill="white"/>
<path d="M34.2992 11.8956C35.5558 12.0827 36.0371 11.3341 35.8499 9.78345C35.3419 10.5053 33.9517 9.78345 34.2992 11.8956Z" fill="white"/>
<path d="M35.2353 15.4248C35.9037 14.9703 35.7433 14.3287 35.0482 13.5801C34.6204 14.3554 34.7273 14.9703 35.2353 15.4248Z" fill="white"/>
<path d="M27.6429 9.22213C27.8836 8.76763 27.8033 8.42006 27.2686 8.17944C26.9745 8.58048 27.135 8.92804 27.6429 9.22213Z" fill="white"/>
<path d="M27.9902 13.4197C28.2308 12.6978 28.0436 12.2968 27.4287 12.1631C27.5891 12.8047 27.1346 13.0454 27.9902 13.4197Z" fill="white"/>
<path d="M29.9412 5.55933C29.246 5.85342 29.0322 6.25445 29.2728 6.76243C29.8877 6.65549 30.0214 6.20098 29.9412 5.55933Z" fill="white"/>
<path d="M28.9524 6.62867C29.1662 5.7464 28.9524 5.07801 27.8027 4.9978C28.0434 5.29189 27.8562 5.85334 28.0701 6.1207C28.2572 6.36132 28.8187 6.36132 28.9524 6.62867Z" fill="white"/>
<path d="M38.9783 19.5688C39.9408 19.3014 40.2616 19.0073 40.0745 17.7507C39.7536 18.232 38.8179 18.0716 38.9783 19.5688Z" fill="white"/>
<path d="M37.6419 29.0064C37.3478 29.6748 37.5349 30.1827 38.23 30.557C38.337 29.4876 38.1498 28.9796 37.6419 29.0064Z" fill="white"/>
<path d="M34.5674 13.0452C34.8882 13.7671 35.824 13.5799 36.5726 12.4571C35.7705 12.6977 35.0486 11.9491 34.5674 13.0452Z" fill="white"/>
<path d="M40.1016 21.1997C39.5669 21.5473 38.7114 21.5205 38.845 22.8038C39.7808 22.8573 40.2086 22.2691 40.1016 21.1997Z" fill="white"/>
<path d="M41.3574 25.5843C40.5821 25.3972 40.1008 25.5843 39.9404 26.1458C41.0099 26.5201 40.8762 26.3329 41.3574 25.5843Z" fill="white"/>
<path d="M40.6359 27.3488C40.6359 26.5735 40.2616 26.3596 39.7002 26.5467C39.8873 26.9478 40.1814 27.2419 40.6359 27.3488Z" fill="white"/>
<path d="M38.417 24.3277C39.0052 24.4613 39.3795 24.1405 39.5934 23.4187C38.8982 23.3919 38.4705 23.686 38.417 24.3277Z" fill="white"/>
<path d="M39.2994 20.558C40.0747 20.6916 40.6094 20.451 40.5292 19.3281C40.048 19.7024 39.2192 19.3816 39.2994 20.558Z" fill="white"/>
<path d="M37.2939 16.1735C38.1495 16.9221 38.8981 16.5478 39.513 15.5853C38.6575 15.3981 37.8019 15.0238 37.2939 16.1735Z" fill="white"/>
<path d="M21.1451 7.32397C21.5461 7.19029 21.76 6.92293 21.6263 6.41496C21.4659 6.0674 21.1718 6.01392 20.9312 6.12087C20.5569 6.12087 20.3965 6.33475 20.3965 6.70905C20.45 7.16355 20.7708 7.40417 21.1451 7.32397Z" fill="white"/>
<path d="M26.4932 13.687C26.7605 14.088 27.0546 14.5158 27.5893 14.3286C27.6695 13.687 27.322 13.4464 26.4932 13.687Z" fill="white"/>
<path d="M37.722 12.2966C37.428 12.965 36.6259 13.072 37.2408 14.1681C38.0161 13.6869 38.1766 13.4195 37.722 12.2966Z" fill="white"/>
<path d="M22.1352 4.27612C21.5203 4.35633 21.2262 4.70389 21.3331 5.31881C22.2421 5.37228 21.948 4.65042 22.1352 4.27612Z" fill="white"/>
<path d="M24.6481 5.80007C24.0867 5.10495 22.1885 3.74143 22.135 5.53271C22.0815 7.35073 23.8193 5.71986 24.6481 5.80007Z" fill="white"/>
<path d="M24.488 9.81024C24.7019 9.43595 24.4345 9.16859 23.6592 9.03491C23.7661 9.46268 24.0335 9.97066 24.488 9.81024Z" fill="white"/>
<path d="M25.4503 8.09919C25.4503 7.72489 25.3166 7.48427 24.9156 7.511C24.675 7.40406 24.3809 7.45753 24.2204 7.8051C24.0868 8.31307 24.3007 8.58043 24.7017 8.7141C25.1027 8.76758 25.4236 8.52696 25.4503 8.09919Z" fill="white"/>
<path d="M23.3643 7.59134C24.0594 7.91217 24.4871 7.13684 24.7812 6.49518C23.792 6.44171 23.2306 6.76254 23.3643 7.59134Z" fill="white"/>
<path d="M22.9366 7.27046C23.2841 6.94963 23.1505 6.57533 22.8564 6.38818C22.5355 6.5486 22.4553 7.0031 22.9366 7.27046Z" fill="white"/>
<path d="M21.5469 12.6443C21.6538 12.0828 21.2795 11.6551 20.6111 11.3342C20.5042 12.0828 20.7983 12.5373 21.5469 12.6443Z" fill="white"/>
<path d="M26.8941 13.1256C26.4931 13.1791 26.1455 12.6443 25.7178 13.286C26.2257 13.6603 26.6 13.5801 26.8941 13.1256Z" fill="white"/>
<path d="M20.1032 7.35063C20.6379 5.8267 19.2477 6.01385 18.8467 5.34546C18.7397 6.68224 19.0873 7.45757 20.1032 7.35063Z" fill="white"/>
<path d="M20.1032 5.34543C20.5043 5.10481 20.2369 4.75725 20.1032 4.1958C19.8091 4.5701 19.5685 4.91766 20.1032 5.34543Z" fill="white"/>
<path d="M20.7979 9.30225C20.8246 10.0508 21.0919 10.4786 21.5999 10.5588C21.6534 10.0241 21.386 9.59634 20.7979 9.30225Z" fill="white"/>
<path d="M27.2147 9.38243C26.9474 8.84772 26.3592 8.66057 25.8779 9.11507C26.3057 9.22202 26.6265 9.91714 27.2147 9.38243Z" fill="white"/>
<path d="M26.6796 10.6658C26.4657 10.7193 26.3588 10.4252 26.1716 10.5322C25.8508 10.7193 25.6904 11.0669 25.8776 11.6283C26.038 11.8957 26.2518 12.0293 26.5727 12.0561C26.9737 12.0293 27.348 11.8155 27.348 11.3342C27.2678 10.7728 27.1074 10.5589 26.6796 10.6658Z" fill="white"/>
<path d="M25.9314 7.35063C26.9206 7.45757 27.2682 6.68224 27.188 5.34546C26.7602 6.01385 25.37 5.8267 25.9314 7.35063Z" fill="white"/>
<path d="M26.9199 8.42009C26.5456 7.77843 26.0911 7.61802 25.5029 7.99232C25.7703 8.52703 26.2515 8.66071 26.9199 8.42009Z" fill="white"/>
<path d="M23.3382 11.5482C23.3115 10.9867 22.9104 10.7728 22.3223 10.7996C22.5094 11.361 22.8302 11.6284 23.3382 11.5482Z" fill="white"/>
<path d="M25.9312 5.34543C26.4392 4.91766 26.1985 4.5701 25.9312 4.1958C25.7708 4.75725 25.5034 5.10481 25.9312 5.34543Z" fill="white"/>
<path d="M39.1387 29.4876C39.8338 29.6212 40.1814 29.4074 40.5824 28.9261C40.9033 28.2043 40.8765 27.5626 40.4488 27.322C40.1012 27.0814 39.7536 27.2953 39.4328 27.2685C39.1387 27.2685 38.7644 27.0546 38.5238 27.2953C38.1762 27.6161 38.1495 27.8834 38.203 28.4181C38.2297 29.0331 38.5505 29.3272 39.1387 29.4876Z" fill="white"/>
<path d="M24.3275 10.2113C23.6056 9.78354 23.4987 10.2915 23.0977 10.5321C23.7393 10.9599 24.2206 10.7995 24.3275 10.2113Z" fill="white"/>
<path d="M25.6107 6.54855C25.7176 5.93363 25.4235 5.58607 24.8086 5.50586C24.9957 5.88016 24.7017 6.60202 25.6107 6.54855Z" fill="white"/>
<path d="M25.3965 17.5636C25.8243 17.9112 26.1986 17.9379 26.5194 17.6171C26.1718 17.1893 25.7975 17.1626 25.3965 17.5636Z" fill="white"/>
<path d="M14.2745 28.5252C14.0339 27.7766 13.5527 27.5092 12.7773 27.8568C13.2853 28.0707 12.9645 28.846 14.2745 28.5252Z" fill="white"/>
<path d="M33.7654 15.2376C33.9792 14.7297 33.7921 14.3821 33.3109 14.1682C33.2307 14.596 33.2841 14.997 33.7654 15.2376Z" fill="white"/>
<path d="M34.4601 20.1035C34.2463 21.066 34.4869 21.467 35.0483 21.5205C35.5563 21.0393 35.2622 20.558 34.4601 20.1035Z" fill="white"/>
<path d="M33.3374 18.9004C33.1235 19.542 33.3374 19.9966 34.086 20.2104C34.1127 19.4351 33.8454 19.0341 33.3374 18.9004Z" fill="white"/>
<path d="M37 19.8629C37.1604 20.5046 37.5614 20.9056 38.2298 21.0126C38.2298 20.0768 37.8555 19.6491 37 19.8629Z" fill="white"/>
<path d="M33.3105 28.0707C33.872 28.0974 34.4869 28.3915 34.38 27.6696C33.9522 27.2953 33.6046 27.4825 33.3105 28.0707Z" fill="white"/>
<path d="M37.4814 22.5096C37.0537 22.2422 36.6526 22.3224 36.2783 22.7234C36.7328 23.0443 37.1339 23.0175 37.4814 22.5096Z" fill="white"/>
<path d="M36.5719 27.5091C37.2135 27.2418 37.4007 26.7606 37.0531 26.0654C36.5986 26.6536 36.2243 26.8675 36.5719 27.5091Z" fill="white"/>
<path d="M31.4129 22.7236C31.3862 22.3226 31.814 21.574 30.8782 21.3601C30.3435 21.8146 30.6376 22.2691 31.4129 22.7236Z" fill="white"/>
<path d="M26.3324 15.6118C26.3859 16.2535 25.7977 16.601 26.7869 17.109C27.4553 16.4674 27.0542 15.9059 26.3324 15.6118Z" fill="white"/>
<path d="M30.556 22.67C30.556 22.2422 30.3154 22.1887 30.0748 22.0283C29.9411 22.2957 30.1282 22.67 30.556 22.67Z" fill="white"/>
<path d="M27.5885 19.2211C27.1607 20.0766 27.6152 20.5044 28.4975 20.745C28.551 19.6756 28.2569 19.1676 27.5885 19.2211Z" fill="white"/>
<path d="M27.8027 18.5794C28.0434 19.0339 28.4711 18.9805 29.0326 18.4992C28.3374 18.2854 27.8829 18.2854 27.8027 18.5794Z" fill="white"/>
<path d="M29.5137 18.7132C30.289 18.8736 30.7435 18.7399 30.797 18.2052C30.289 17.8042 29.8612 18.0181 29.5137 18.7132Z" fill="white"/>
<path d="M30.9044 16.3605C31.0381 15.8792 30.9846 15.3712 30.5301 15.2108C30.3964 15.1574 30.2627 15.3445 30.1023 15.3178C29.8884 15.3178 29.835 15.2108 29.6746 15.291C29.2468 15.4782 29.1933 15.799 29.2735 16.0931C29.3805 16.5209 29.5676 16.7615 29.9687 16.8684C30.3162 16.9754 30.8242 16.6813 30.9044 16.3605Z" fill="white"/>
<path d="M25.3703 20.1837C26.0921 19.4886 26.3595 18.9004 25.9317 18.4727C24.9425 18.5261 25.0227 19.2747 25.3703 20.1837Z" fill="white"/>
<path d="M25.1287 21.6275C24.701 21.2264 24.4069 21.467 24.2197 22.1354C24.7544 22.1354 25.1287 22.0018 25.1287 21.6275Z" fill="white"/>
<path d="M26.0387 24.0604C26.3863 23.8732 26.4665 23.5791 26.3061 23.2048C25.9585 23.3652 25.7981 23.6059 26.0387 24.0604Z" fill="white"/>
<path d="M25.7446 24.1406C25.798 23.6326 25.5307 23.4187 24.8623 23.5524C25.0495 24.0069 25.3168 24.2475 25.7446 24.1406Z" fill="white"/>
<path d="M24.3271 20.9857C24.8351 21.3065 25.2629 21.0926 25.6105 20.5044C24.9688 20.3173 24.4608 20.3707 24.3271 20.9857Z" fill="white"/>
<path d="M24.3804 19.3015C25.0755 18.8738 25.0755 18.3123 24.621 17.6707C24.3269 18.4193 24.0061 18.8203 24.3804 19.3015Z" fill="white"/>
<path d="M33.7109 20.558C32.8821 20.1302 33.0158 20.5847 32.7217 20.7986C33.0692 21.2798 33.3901 21.0927 33.7109 20.558Z" fill="white"/>
<path d="M28.7923 30.7441C29.327 29.9955 28.7923 30.0222 28.6319 29.6479C28.5517 30.0222 27.9903 30.557 28.7923 30.7441Z" fill="white"/>
<path d="M27.8565 29.7283C28.2575 29.7283 28.5249 29.5144 28.6586 29.0332C28.0704 29.0332 27.8298 29.2738 27.8565 29.7283Z" fill="white"/>
<path d="M32.5888 32.9366C33.07 32.1345 32.9631 31.7335 32.2412 31.787C31.9738 32.188 32.1075 32.5623 32.5888 32.9366Z" fill="white"/>
<path d="M31.8664 30.5571C31.4654 30.8512 31.4654 31.1988 31.8129 31.5731C32.214 31.2523 32.5615 31.0116 31.8664 30.5571Z" fill="white"/>
<path d="M29.7545 30.3164C29.4605 30.4501 28.9792 30.3699 29.006 30.9581C29.3535 31.1719 29.7813 30.7442 29.7545 30.3164Z" fill="white"/>
<path d="M28.5776 31.466C28.4974 31.8136 28.6846 32.0275 29.1391 32.1344C29.1123 31.5997 28.9519 31.3858 28.5776 31.466Z" fill="white"/>
<path d="M33.417 31.1184C33.5507 31.7601 33.9784 32.0809 34.6468 32.2146C34.6201 31.3591 34.2458 30.958 33.417 31.1184Z" fill="white"/>
<path d="M26.1182 31.2522C26.2251 31.6265 26.5727 31.7335 27.1074 31.5196C26.8133 30.9849 26.4925 30.9314 26.1182 31.2522Z" fill="white"/>
<path d="M26.8675 32.7495C27.0012 32.2682 26.921 31.9741 26.6804 31.8672C26.3595 32.1078 26.3863 32.4019 26.8675 32.7495Z" fill="white"/>
<path d="M27.3486 33.0702C28.1239 32.8028 28.3646 32.3483 28.1239 31.7334C27.4021 31.8136 27.2149 32.3216 27.3486 33.0702Z" fill="white"/>
<path d="M32.9095 29.5679C33.2035 29.5679 33.2838 29.3273 33.1768 28.8193C32.6421 29.1134 32.5886 29.354 32.9095 29.5679Z" fill="white"/>
<path d="M32.9633 27.3221C32.589 27.0013 32.8029 26.1992 31.8137 26.3596C31.6532 27.1349 32.188 27.3488 32.9633 27.3221Z" fill="white"/>
<path d="M33.8722 26.012C33.4979 26.3863 33.5247 26.7606 33.9257 27.1883C34.2465 26.7873 34.2198 26.3863 33.8722 26.012Z" fill="white"/>
<path d="M31.7334 28.5252C33.0702 28.846 32.7494 28.0707 33.2306 27.8568C32.4553 27.5092 31.974 27.7766 31.7334 28.5252Z" fill="white"/>
<path d="M31.4657 26.4665C31.4123 26.0654 31.1182 25.8783 30.7171 25.9852L30.2359 25.905C29.8883 26.0387 29.7814 26.3061 29.9151 26.7338C30.0488 27.0814 30.2894 27.322 30.6637 27.322C31.0914 27.4022 31.4925 27.0012 31.4657 26.4665Z" fill="white"/>
<path d="M35.1284 29.7014C34.5937 30.049 34.7007 30.7174 35.2621 31.5729C35.9305 30.851 36.0107 30.1827 35.1284 29.7014Z" fill="white"/>
<path d="M34.9141 27.4022C35.0211 27.0011 34.8072 26.7338 34.2725 26.6001C34.2992 27.1615 34.4863 27.4556 34.9141 27.4022Z" fill="white"/>
<path d="M36.8666 29.5144C36.3319 28.8727 35.8506 28.7925 35.4229 29.1668C35.6635 29.7818 36.1447 29.8887 36.8666 29.5144Z" fill="white"/>
<path d="M27.5088 28.0439C27.9098 27.5627 27.4821 27.2419 27.188 26.8408C26.7602 27.5627 26.9206 27.9102 27.5088 28.0439Z" fill="white"/>
<path d="M29.0859 28.4182C29.487 28.6054 29.9415 28.5519 30.396 28.2044C29.7276 27.8835 29.2731 27.9103 29.0859 28.4182Z" fill="white"/>
<path d="M29.0855 26.3863C29.4598 26.1457 29.6202 26.0387 29.4063 25.4773C28.9251 25.7714 28.8449 26.0655 29.0855 26.3863Z" fill="white"/>
<path d="M32.9359 21.7343C32.9894 21.2798 32.829 21.0659 32.4547 21.0659C32.2943 21.4937 32.4547 21.7076 32.9359 21.7343Z" fill="white"/>
<path d="M15.1305 21.3601C14.2215 21.574 14.6225 22.2959 14.5958 22.7236C15.3711 22.2691 15.6652 21.8146 15.1305 21.3601Z" fill="white"/>
<path d="M11.9217 20.2104C12.6703 20.0233 12.8842 19.5688 12.6703 18.9004C12.1624 19.0341 11.895 19.4351 11.9217 20.2104Z" fill="white"/>
<path d="M7.77734 21.0126C8.44573 20.9056 8.84677 20.4779 9.00718 19.8629C8.15164 19.6491 7.77734 20.0768 7.77734 21.0126Z" fill="white"/>
<path d="M12.2959 20.558C12.6167 21.0927 12.9376 21.2799 13.2851 20.7986C12.991 20.5848 13.1247 20.1035 12.2959 20.558Z" fill="white"/>
<path d="M15.9324 22.0283C15.6918 22.162 15.4779 22.2422 15.4512 22.67C15.8789 22.67 16.0661 22.2957 15.9324 22.0283Z" fill="white"/>
<path d="M13.0715 21.7343C13.5528 21.7076 13.7132 21.4937 13.5528 21.0659C13.1785 21.0392 13.0181 21.2531 13.0715 21.7343Z" fill="white"/>
<path d="M12.9916 16.9487C12.7243 17.4567 12.8045 17.8845 13.259 18.232C13.4461 17.5904 13.3659 17.1626 12.9916 16.9487Z" fill="white"/>
<path d="M16.2801 15.291C16.1197 15.2376 16.0662 15.3178 15.8524 15.3178C15.6919 15.3445 15.585 15.1574 15.4246 15.2108C14.9968 15.3712 14.9166 15.8792 15.0503 16.3605C15.1305 16.6813 15.6385 16.9754 15.9593 16.8952C16.3603 16.7615 16.5475 16.5209 16.6544 16.1198C16.7881 15.799 16.7079 15.4782 16.2801 15.291Z" fill="white"/>
<path d="M14.2746 13.8474C13.927 13.9276 13.6597 14.088 13.5527 14.596C14.0874 14.5425 14.2746 14.2484 14.2746 13.8474Z" fill="white"/>
<path d="M12.5635 15.4248C12.911 15.9328 13.3655 15.9863 13.927 15.4783C13.4725 14.9169 12.9912 14.8634 12.5635 15.4248Z" fill="white"/>
<path d="M12.243 15.2376C12.7242 14.997 12.7509 14.596 12.6975 14.1682C12.2162 14.3821 12.0291 14.7297 12.243 15.2376Z" fill="white"/>
<path d="M15.7721 25.905L15.2909 25.9852C14.9166 25.8783 14.5958 26.0387 14.5423 26.4665C14.5155 27.0012 14.9166 27.3755 15.3443 27.322C15.7186 27.2953 15.9593 27.0814 16.0929 26.7338C16.2266 26.3328 16.1197 26.0387 15.7721 25.905Z" fill="white"/>
<path d="M12.8314 28.8193C12.7244 29.3273 12.8046 29.5679 13.0987 29.5679C13.4195 29.354 13.3661 29.1134 12.8314 28.8193Z" fill="white"/>
<path d="M16.9487 28.4182C16.7348 27.9103 16.2803 27.8835 15.6387 28.2044C16.0932 28.5252 16.5209 28.5787 16.9487 28.4182Z" fill="white"/>
<path d="M10.9596 21.5205C11.5477 21.4938 11.7884 21.066 11.5477 20.1035C10.7457 20.558 10.4516 21.0393 10.9596 21.5205Z" fill="white"/>
<path d="M14.1946 26.3596C13.2053 26.2259 13.4192 27.0012 13.0449 27.3221C13.8203 27.3488 14.355 27.1349 14.1946 26.3596Z" fill="white"/>
<path d="M9.72947 22.7234C9.35517 22.3224 8.95414 22.2422 8.52637 22.5096C8.87393 23.0175 9.27496 23.0443 9.72947 22.7234Z" fill="white"/>
<path d="M16.6005 25.5042C16.3867 26.0656 16.5738 26.1725 16.9214 26.4132C17.162 26.0656 17.0818 25.7715 16.6005 25.5042Z" fill="white"/>
<path d="M8.87365 18.6598C8.76671 19.6758 9.59551 20.0768 10.2104 19.9966C10.8788 19.8629 11.2264 19.5688 11.1462 18.8737C11.0392 17.2428 10.2372 18.0716 9.83613 18.1251C9.5153 18.2855 9.08754 17.9112 8.87365 18.6598Z" fill="white"/>
<path d="M18.82 26.8677C18.5259 27.242 18.0982 27.5895 18.4992 28.0708C19.0874 27.9104 19.2478 27.5628 18.82 26.8677Z" fill="white"/>
<path d="M32.7493 18.232C33.2038 17.8845 33.284 17.43 33.0167 16.9487C32.6691 17.1626 32.5622 17.5904 32.7493 18.232Z" fill="white"/>
<path d="M21.3861 14.489C21.0386 15.1841 21.1455 15.6386 21.8139 15.8258C21.9476 15.2376 21.7604 14.8098 21.3861 14.489Z" fill="white"/>
<path d="M17.2683 13.9275C17.1079 13.366 16.6534 13.2591 16.0117 13.3393C16.3325 13.9809 16.7603 14.1414 17.2683 13.9275Z" fill="white"/>
<path d="M24.1935 15.8258C24.8618 15.6386 24.9688 15.1574 24.6212 14.489C24.2469 14.8098 24.0598 15.2376 24.1935 15.8258Z" fill="white"/>
<path d="M20.4238 26.6805C21.012 26.7072 21.413 26.5468 21.413 25.9319C21.0387 25.7982 20.7179 26.0655 20.4238 26.6805Z" fill="white"/>
<path d="M21.6803 26.012C21.4397 26.2793 21.5199 26.5467 21.9209 26.921C22.1615 26.2526 21.8407 26.2526 21.6803 26.012Z" fill="white"/>
<path d="M33.4436 15.4248C33.0158 14.8634 32.5613 14.9169 32.0801 15.4783C32.6415 15.9863 33.0693 15.9328 33.4436 15.4248Z" fill="white"/>
<path d="M31.7334 13.8474C31.7334 14.2484 31.9205 14.5425 32.4553 14.596C32.3483 14.0613 32.081 13.9276 31.7334 13.8474Z" fill="white"/>
<path d="M22.8296 14.6494C23.5782 14.5425 23.8723 14.088 23.7654 13.3394C23.097 13.6602 22.7227 14.088 22.8296 14.6494Z" fill="white"/>
<path d="M22.2411 24.5148C22.562 23.6058 22.6422 22.8572 21.6797 22.8037C21.2519 23.2315 21.5193 23.8197 22.2411 24.5148Z" fill="white"/>
<path d="M28.7383 13.9277C29.2195 14.1416 29.6473 13.9811 29.9949 13.3395C29.3532 13.2325 28.8987 13.3662 28.7383 13.9277Z" fill="white"/>
<path d="M19.7025 23.2048C19.5688 23.5791 19.649 23.8732 19.9698 24.0604C20.2105 23.6059 20.0501 23.3652 19.7025 23.2048Z" fill="white"/>
<path d="M19.916 20.1569C20.2636 20.7451 20.6913 20.959 21.1993 20.6381C21.0389 20.0232 20.5577 19.943 19.916 20.1569Z" fill="white"/>
<path d="M19.2203 17.1359C20.2095 16.6279 19.6213 16.2803 19.6748 15.6387C18.9796 15.906 18.5519 16.4675 19.2203 17.1359Z" fill="white"/>
<path d="M17.5101 20.745C18.3923 20.5044 18.8468 20.0766 18.4191 19.2211C17.7507 19.1676 17.4566 19.6756 17.5101 20.745Z" fill="white"/>
<path d="M16.9746 18.4992C17.5361 19.0072 17.9638 19.0607 18.2044 18.5794C18.1242 18.2854 17.6697 18.2854 16.9746 18.4992Z" fill="white"/>
<path d="M19.4883 17.6171C19.8091 17.9379 20.1834 17.9112 20.6112 17.5636C20.2101 17.1626 19.8358 17.1893 19.4883 17.6171Z" fill="white"/>
<path d="M21.0919 16.8684C20.6374 17.5101 20.6374 18.0715 21.3325 18.4993C21.7068 18.018 21.4128 17.617 21.0919 16.8684Z" fill="white"/>
<path d="M21.1452 23.5256C20.4768 23.3919 20.1827 23.6326 20.2629 24.1138C20.6907 24.2475 20.958 24.0069 21.1452 23.5256Z" fill="white"/>
<path d="M15.21 18.2052C15.2634 18.7399 15.7179 18.9003 16.4933 18.7132C16.1457 18.0181 15.7179 17.8042 15.21 18.2052Z" fill="white"/>
<path d="M20.8781 22.269C20.691 21.6006 20.3969 21.36 19.9691 21.761C19.9424 22.162 20.3167 22.269 20.8781 22.269Z" fill="white"/>
<path d="M32.7222 39.5329C30.4349 39.0755 29.9149 39.4333 26.8403 38.4976C26.573 38.4976 26.065 38.257 25.9581 38.0164C25.3966 37.5619 25.3966 36.9202 25.6105 36.1983C25.7175 34.8616 26.1185 33.2842 25.5838 32.4286C25.3966 31.9474 24.5946 31.0651 24.755 30.5571C24.8352 30.2363 24.8352 30.0224 25.156 29.7016C25.263 29.6481 25.5303 29.1401 25.6372 28.6322C25.7977 28.5787 26.0115 28.552 26.3056 28.5787C26.6532 28.6856 26.9473 28.8995 27.1077 29.2204C27.3216 29.5946 27.4018 29.9957 27.3751 30.37C27.3216 30.6106 27.2146 30.7175 27.0542 30.7443C26.9473 30.6908 26.9473 30.5839 27.0542 30.3967C27.0008 30.3967 26.9473 30.4769 26.8938 30.5304C26.8404 30.2363 26.7334 30.0224 26.4126 30.0224C26.4126 30.4235 26.5463 30.5304 26.8938 30.5571C26.8671 30.6106 26.8404 30.6908 26.8671 30.7175C27.0275 30.9314 27.2414 30.9582 27.3751 30.7978C27.5889 30.5037 27.6157 30.3165 27.6157 29.9155C27.7494 30.3967 28.2573 31.279 28.5514 31.3592C28.7118 31.4127 28.8188 31.3592 28.899 31.279C28.9792 31.1721 28.899 30.8512 28.7653 30.8245C28.7653 30.9849 28.899 31.279 28.6584 31.2255C28.391 31.1453 28.1237 30.6373 27.9098 30.0759C27.7494 29.8353 27.6157 29.4877 27.5622 28.9797C27.7226 28.7926 28.0702 28.8193 28.3643 28.7658L29.3 29.0065C29.7278 29.0599 30.209 29.3808 30.4497 29.7551C30.6903 30.0224 30.824 30.2898 30.824 30.5571C30.7972 30.771 30.6101 31.0116 30.3427 31.1721C30.209 31.0918 30.0754 30.9849 29.8882 30.9849C29.4872 31.0116 29.2466 31.3592 29.2733 32.0811C29.3268 32.9633 29.6209 33.3109 30.3427 33.3911C30.8774 33.4446 31.5191 33.1237 31.7597 32.2415C31.8399 31.4661 31.5458 31.0651 30.6903 31.1988C30.7972 31.1453 30.8774 31.0651 30.9576 30.9849C31.1448 30.771 31.1983 30.4502 31.0378 30.1561C30.9042 29.9155 30.7972 29.7283 30.6903 29.4877L31.5458 29.862L32.3479 30.3967C32.642 30.5839 32.8826 30.8512 33.0965 31.1453C33.2302 31.4127 32.9628 31.3859 32.7222 31.4127C32.7756 31.5731 32.8826 31.6533 33.0163 31.5998C33.2569 31.5196 33.3638 31.3325 33.3104 31.1186C33.2569 30.9582 33.1767 30.7978 32.9895 30.6641L32.4014 30.1828C32.4816 30.0492 32.8559 30.1828 33.0965 30.1026C33.3104 30.0492 33.5777 29.9689 33.8183 29.9957C33.9253 30.0492 34.0055 30.1026 34.0055 30.2363C34.0055 30.37 33.7649 30.3432 33.6579 30.1294C33.5777 30.263 33.6312 30.4769 33.7916 30.5304C33.952 30.5839 34.059 30.5304 34.1659 30.3165C34.2194 30.1828 34.2728 30.0224 34.1124 29.8887C34.46 29.6481 34.8076 29.4075 35.1551 29.1669C35.5027 28.9263 35.877 28.6322 36.1978 28.2846C36.385 28.0707 36.679 27.8836 36.9999 27.7499C37.187 27.6964 37.3474 27.6697 37.4811 27.7232C37.5881 27.8034 37.6683 27.8836 37.6683 28.0173C37.6683 28.2044 37.6683 28.2846 37.5078 28.3915C37.3474 28.5252 37.294 28.4183 37.294 28.1777C37.0533 28.4985 37.0533 28.6589 37.294 28.6589C37.6148 28.6322 37.8287 28.445 37.8821 28.1242C37.9356 27.8034 37.8019 27.536 37.4544 27.3756C37.0266 27.2687 36.5186 27.5093 35.9572 27.9905L35.2086 28.5787C35.4225 28.2044 35.5027 27.8836 35.3423 27.6697C35.1016 27.4291 34.8343 27.4558 34.5937 27.643C34.46 27.7499 34.5402 27.9103 34.7808 28.0975C34.7273 27.9103 34.7273 27.6697 34.9947 27.7232C35.1551 27.7766 35.2353 27.8568 35.2086 28.0975C35.1819 28.3113 34.8343 28.8193 34.5669 29.0332C34.059 29.5679 33.5242 29.7283 32.9895 29.7551C32.5885 29.7551 32.2409 29.7818 31.8666 29.7283C31.5191 29.6214 31.118 29.4075 30.9042 29.0065C30.8507 28.7926 30.9576 28.6589 31.3854 28.6589C31.5725 28.6589 31.6795 28.7124 31.6528 28.8728C31.6528 28.953 31.5191 28.953 31.4389 28.9797C31.5458 29.1401 31.6795 29.1134 31.8132 29.0065C31.9201 28.9263 31.8399 28.6589 31.6795 28.5787C31.5993 28.552 31.5191 28.5252 31.4389 28.5252C31.5993 28.2311 31.5725 27.9638 31.3319 27.6697C31.0913 27.9638 31.1448 28.2579 31.3854 28.4985C31.3052 28.4985 31.225 28.4985 31.1448 28.5252L30.3962 28.6856C29.8347 28.8193 29.1129 28.7391 28.8455 28.4183C29.3535 28.044 29.7278 27.6964 29.7545 27.3756C29.7545 26.8141 29.5406 26.6003 29.0861 26.5735C29.4872 26.8141 29.6209 27.2152 29.4337 27.5093C29.2466 27.7766 29.0059 27.9638 28.5514 28.1509C28.2306 28.2846 27.883 28.3381 27.5622 28.3381C27.0275 28.3648 26.5997 28.2044 26.1452 27.937C26.7067 27.2419 27.0542 26.4398 27.2414 25.5041C27.4018 25.317 27.5889 25.21 27.8296 25.1565C28.1771 25.0496 28.4178 25.0229 28.6049 25.1031C28.7386 25.1833 28.8455 25.2635 28.8455 25.4774C28.8188 25.6645 28.7118 25.6913 28.6049 25.6645C28.5514 25.6645 28.498 25.611 28.4712 25.4774C28.2573 25.5843 28.2573 25.6645 28.3375 25.7982C28.4712 25.8784 28.6049 25.9051 28.7386 25.7982C28.899 25.6645 28.9525 25.4506 28.899 25.2367C28.8188 24.8892 28.3375 24.8357 28.3375 24.702C28.3643 24.5149 28.5782 24.3812 28.6584 24.1673C28.7386 23.9 28.8188 23.6059 28.7118 23.2583C28.6316 23.0712 28.498 22.9375 28.2841 22.884C28.0702 22.8573 27.9365 22.9375 27.7761 23.1781C27.6959 23.3118 27.7761 23.4722 27.8296 23.6059C27.9365 23.6861 28.0435 23.7128 28.1771 23.6059C28.0435 23.5791 27.9098 23.4989 27.9365 23.3653C27.99 23.2048 28.0702 23.1514 28.2039 23.1781C28.5514 23.1781 28.6049 23.4455 28.5247 23.8465C28.4445 24.2208 28.2306 24.4614 27.9365 24.6486L27.2414 24.8625L27.3751 23.3385C27.6424 22.5899 27.9098 22.2691 28.1771 22.3493C28.5782 22.5632 28.9792 22.9375 29.4337 23.5524C29.4872 23.6861 29.4604 23.9534 29.3 24.0069C29.2198 24.0336 29.1396 24.0069 29.0594 23.9534C28.9792 23.9 29.0327 23.6594 29.0861 23.5524C28.899 23.6059 28.8455 23.7663 28.9257 24.0069C29.0059 24.1673 29.1396 24.2475 29.3535 24.1941C29.5406 24.1139 29.6476 23.9534 29.7011 23.6861L29.8347 23.6326C30.1021 23.7663 30.3694 23.8732 30.6368 23.9534L30.6101 24.9427C30.5833 25.1031 30.4229 25.1833 30.1556 25.2367C29.9417 25.2635 29.8615 25.21 29.8615 25.1031C29.8882 24.9694 29.9684 24.9159 30.0754 24.9427C30.0486 24.8357 30.0219 24.7822 29.8882 24.7822C29.7278 24.809 29.5941 24.9427 29.6476 25.1833C29.7011 25.3437 29.808 25.4506 30.0486 25.4774C30.2892 25.4774 30.5299 25.3704 30.6903 25.1833C30.7972 25.3704 30.9309 25.5843 31.0646 25.7447C31.2517 25.9853 31.4656 26.0923 31.8399 26.0923C32.0805 26.0388 32.2409 25.9051 32.2409 25.6913C32.2677 25.3972 32.134 25.2635 31.8934 25.2635C31.7597 25.2902 31.6795 25.3704 31.6795 25.5308C31.8399 25.4506 32.0003 25.4774 32.0271 25.611C32.0271 25.7982 31.8934 25.9319 31.733 25.9051C31.4656 25.8517 31.3052 25.6645 31.1982 25.5041C31.0378 25.2635 30.9576 24.9694 30.9576 24.6218C30.9576 24.3812 30.9844 24.1941 31.0646 24.0069C31.0913 24.0069 31.1448 24.0069 31.1715 24.0069C31.7062 24.0871 32.2142 24.2475 32.7489 24.2475C33.4975 24.1941 33.7916 24.2743 34.3263 24.4882C34.6739 24.6486 34.9412 24.8625 34.9145 25.1833C34.8878 25.3704 34.7273 25.5041 34.4867 25.611C34.1926 25.718 34.059 25.6913 34.059 25.5843C34.059 25.4506 34.1392 25.3704 34.3531 25.317C34.2728 25.1833 34.1659 25.1565 34.0322 25.1833C33.8451 25.21 33.7649 25.5041 33.8718 25.6913C34.0055 25.8784 34.2996 25.9051 34.6204 25.8249C34.8878 25.7447 35.1016 25.5843 35.2353 25.2635C35.3423 24.8892 35.2086 24.5149 34.5937 24.1673C35.0482 24.1139 35.5294 24.4614 35.9839 24.9961C36.1443 25.2635 36.2245 25.5843 36.2513 25.9051C36.278 26.2527 36.1443 26.3596 35.9037 26.2794C35.7968 26.2527 35.9037 26.0388 35.9304 25.9319C35.6096 25.9853 35.5294 26.2794 35.6364 26.4398C35.7433 26.6003 36.0374 26.6805 36.3582 26.3864C36.6256 26.0923 36.679 25.718 36.5721 25.2635L37.9624 26.4666C38.2297 26.6537 38.4971 26.7607 38.8446 26.7874C39.1922 26.7874 39.4863 26.6805 39.7269 26.3864C39.8873 26.226 39.8873 26.0121 39.8338 25.7715C39.7536 25.4506 39.513 25.2635 39.2724 25.317C39.0318 25.3437 39.005 25.5041 39.0852 25.7715C39.1655 25.718 39.1655 25.5576 39.2991 25.5843C39.5398 25.611 39.6734 25.7715 39.62 26.0656C39.5665 26.2794 39.3526 26.4666 38.9783 26.4666C38.5505 26.4399 38.2297 26.2794 37.9624 25.9853L36.9731 25.0229C37.187 24.9694 37.4276 24.8357 37.6683 24.7555C37.8821 24.6753 38.1228 24.6753 38.3367 24.7555C38.5238 24.8357 38.5773 24.9694 38.5505 25.1298C38.5505 25.3437 38.2832 25.1833 38.1495 25.1298C38.1228 25.4239 38.3634 25.5041 38.6575 25.4239C38.8714 25.3437 38.8446 24.8357 38.7109 24.702C38.5505 24.5149 38.3901 24.4079 38.1762 24.3545C38.3634 24.1139 38.6575 23.6326 38.6575 23.2583C38.6575 23.0444 38.604 22.7771 38.4169 22.6434C38.203 22.5097 37.8287 22.5899 37.7217 22.6969C37.6148 22.8038 37.5881 22.9642 37.6415 23.1514C37.695 23.2851 37.8554 23.2851 38.0158 23.3118C37.8554 23.1781 37.7752 23.0712 37.8554 22.9375C38.0158 22.7771 38.203 22.8038 38.3634 22.9642C38.4971 23.1246 38.4169 23.4722 38.1495 23.9C37.3474 24.6753 36.6523 24.7822 36.4384 24.6486C36.0641 24.301 35.6631 24.0871 35.2086 23.8732C35.369 23.793 35.5294 23.6861 35.5294 23.5257C35.5027 23.3118 35.3957 23.1514 35.1551 23.1514C34.861 23.1514 34.7273 23.2583 34.7541 23.5257C34.9412 23.3385 35.1016 23.2851 35.2353 23.4455C35.3155 23.5524 35.1819 23.6594 34.8878 23.793C34.6204 23.8465 34.4867 23.6326 34.2461 23.5791C33.9253 23.4989 33.3371 23.5257 32.8559 23.5791C33.4708 22.884 34.0322 22.3226 34.6204 22.1354C34.9145 22.0552 35.1284 22.1087 35.5027 22.2958C35.7166 22.4562 35.9037 22.5632 35.8235 22.7503C35.7433 22.8573 35.6096 22.8038 35.5294 22.6167C35.4225 22.7503 35.4492 23.0177 35.6364 23.0444C35.9572 23.0444 36.0107 22.8573 36.0374 22.6701C36.0641 22.3493 35.9572 22.2156 35.6364 22.0285C36.6523 22.1354 37.5346 22.0285 38.2297 21.5472C38.7377 21.1462 38.9783 20.7986 38.9248 20.4511C38.8179 19.9431 38.4703 19.756 38.0426 19.8896C38.4169 20.0233 38.5238 20.2372 38.5773 20.5045C38.6307 20.8254 38.203 21.467 37.5346 21.6007C37.187 21.6542 36.8395 21.6809 36.4919 21.6274C36.2245 21.6007 35.9037 21.6007 35.5829 21.6274C35.1819 21.6809 34.8878 21.6809 34.4867 21.7077C34.4333 21.5205 34.2996 21.3601 34.1124 21.3868C33.8718 21.4403 33.8718 21.6007 34.0055 21.8146C34.059 21.6809 34.1392 21.467 34.1926 21.6542C34.2461 21.7879 34.2194 21.8948 34.0857 22.0285L32.8826 22.7236C32.9361 22.4295 32.8559 22.2156 32.5083 22.1622C32.3746 22.1622 32.2677 22.2424 32.1875 22.376C32.134 22.5097 32.2142 22.6167 32.3746 22.7503C32.3211 22.5365 32.3479 22.4028 32.5618 22.4028C32.7489 22.4295 32.7222 22.6434 32.6152 22.8573C32.535 23.0712 32.1607 23.2048 31.5191 23.3118C30.9844 23.3653 30.5833 23.3385 30.2358 23.2583C29.5406 22.9108 28.8723 22.0285 28.7653 21.5205C29.1396 21.0927 29.4604 20.8254 29.9684 20.7986C30.1556 20.7986 30.4229 20.8521 30.4497 21.0393C30.4764 21.1462 30.4497 21.3868 30.2625 21.6274C30.0754 21.8413 29.7545 21.7611 29.808 21.6274C29.8347 21.5472 30.0219 21.3334 30.0754 21.5472C30.1288 21.3868 30.0486 21.2531 29.9149 21.3066C29.7011 21.3601 29.5941 21.5472 29.6743 21.7879C29.7545 22.0017 30.1288 22.0017 30.2892 21.8681C30.5566 21.6007 30.7437 21.3066 30.824 21.0125C31.2517 21.1729 31.6795 21.2264 32.134 21.1729C32.4816 21.066 32.7222 20.9056 32.642 20.558C32.5618 20.2105 32.3746 20.1303 32.134 20.1303C31.9201 20.2372 31.8666 20.3709 32.0271 20.5313C32.0538 20.3709 32.1875 20.2639 32.3211 20.3976C32.4548 20.5045 32.4816 20.665 32.2409 20.8521C31.8132 21.066 31.1715 20.7986 30.717 20.6917C30.4229 20.5848 30.1288 20.4511 29.8347 20.5045L29.3268 20.665C29.7813 20.2372 30.2892 19.9164 30.7972 19.7025C31.626 19.4351 32.4816 19.0074 33.3638 18.3924C33.952 17.9914 34.4065 17.43 34.7808 16.7616C35.3957 16.6279 35.8235 16.7081 36.1176 16.7081C36.385 16.7348 36.5721 16.8685 36.6523 17.1091C36.7325 17.323 36.7593 17.5369 36.5721 17.5904C36.4384 17.6438 36.3315 17.5904 36.2513 17.3498C36.0909 17.5102 36.1443 17.7508 36.3582 17.831C36.3047 17.831 36.2513 17.831 36.1978 17.8577C35.9572 17.9379 35.77 17.6171 35.4759 17.6171C35.0749 17.6438 34.8343 17.9914 34.861 18.7133C34.9145 19.5955 35.2086 19.9431 35.9304 20.0233C36.4652 20.0768 37.1068 19.756 37.3474 18.8737C37.4009 18.2588 37.2405 17.8845 36.7325 17.8043C36.8127 17.7775 36.8929 17.6706 36.9999 17.5102C36.9999 17.4834 37.0266 17.4834 37.0266 17.4567C37.2405 18.232 37.7752 18.6331 38.5238 18.7133C38.4169 17.2428 37.9356 16.9487 37.0533 17.0824C37.0266 16.815 36.8662 16.5744 36.679 16.4407C37.187 16.1199 37.5613 15.7456 37.7217 15.2911C37.8287 14.7831 37.6683 14.489 37.2138 14.3554C36.9464 14.3019 36.679 14.4356 36.5721 14.8099C36.5454 14.997 36.679 15.0505 36.9464 15.0505C36.7593 14.9168 36.7058 14.8099 36.8395 14.6762C36.9731 14.5692 37.1068 14.5692 37.2405 14.6762C37.5346 14.8901 37.5346 15.0772 37.4009 15.2911C37.187 15.6387 36.8395 16.0397 36.3047 16.1734C35.8502 16.2803 35.4225 16.2803 34.9947 16.1466C34.7273 16.0932 34.9145 15.5317 34.3531 15.2644C34.0857 15.1842 33.8183 15.2644 33.5777 15.4515C33.3371 15.7189 33.3638 15.9328 33.5777 16.1199C33.6045 15.7991 33.6847 15.5852 33.8718 15.4783C34.059 15.3713 34.2728 15.4783 34.4867 15.7189C34.6471 15.9328 34.5937 16.4675 34.3531 16.815C33.8718 17.4834 33.444 17.9647 33.043 18.2053C32.6152 18.4994 32.1073 18.7667 31.626 18.9271C31.7864 18.5529 32.1875 18.3657 32.134 17.8577C32.0805 17.5636 31.5191 17.1893 31.3854 16.922C31.3052 16.7348 31.4656 16.414 31.6795 16.4675C31.8132 16.6012 31.7864 16.7616 31.6795 16.9487C31.9201 17.0022 32.0538 16.7348 32.0003 16.4942C31.9201 16.2536 31.5993 16.2001 31.3854 16.3338C31.1448 16.5209 31.0913 16.7616 31.1448 17.0022C31.0913 16.922 30.9844 16.8685 30.8774 16.815C30.6635 17.2161 30.6903 17.5369 31.1448 17.6438C31.225 17.5102 31.2785 17.3765 31.2517 17.2695C31.3319 17.3765 31.4389 17.43 31.5191 17.5369C31.2517 17.6171 31.118 17.7508 31.0646 17.9647C31.0111 18.0983 31.1448 18.1786 31.3587 18.2053C31.3319 18.1251 31.1983 18.0716 31.2785 17.9914C31.3587 17.8845 31.5725 17.7508 31.6795 17.8577C31.8132 17.9647 31.8132 18.1251 31.8132 18.2855C31.733 18.5796 30.8774 19.1678 30.5031 19.3549C29.8347 19.6757 29.1931 20.2105 28.6049 20.8254C28.2039 20.9858 27.7494 21.3334 27.4553 21.8681L26.974 20.7719C26.7869 20.2372 26.6265 19.6757 26.6799 19.1143C26.7869 18.6865 26.8938 18.4459 27.0008 18.3924C27.3483 18.3657 27.4553 18.4459 27.4285 18.5796C27.4018 18.6865 27.3216 18.6598 27.2681 18.7133C27.3216 19.0074 27.6692 18.9539 27.6692 18.4994C27.6692 18.3122 27.4018 18.1251 27.1612 18.1786C27.1612 18.0449 27.2146 17.8845 27.1879 17.724C27.1879 17.4834 27.0542 17.3498 26.8938 17.3498C26.6532 17.3498 26.5463 17.4567 26.4928 17.724C26.7067 17.5636 26.8136 17.5102 26.9206 17.6706C26.974 17.831 26.8403 18.0983 26.7067 18.2855C26.4928 18.5796 26.3858 19.248 26.4393 19.8629C26.4661 20.2639 26.6265 20.7719 26.8403 21.1462C26.6532 21.1195 26.4661 21.1462 26.3056 21.3334C26.172 21.467 26.1452 21.7879 26.1987 21.975C26.3056 22.1622 26.5195 22.1622 26.7067 22.0552C26.4928 22.0017 26.3858 21.8948 26.4126 21.7879C26.4393 21.6274 26.7067 21.4938 26.9473 21.5472C27.1077 21.574 27.1077 22.0819 27.0542 22.2156L26.8136 22.9108L27.0275 22.5365L26.6532 23.2048L26.5195 24.6753L26.2522 25.6645C26.0115 25.4774 25.8244 25.2368 25.7175 24.8625C25.6907 24.702 25.7709 24.5684 25.9313 24.4882C26.065 24.4079 26.172 24.4079 26.2254 24.5149C26.2522 24.5684 26.2254 24.6753 26.1987 24.7555C26.4393 24.7822 26.5195 24.4079 26.3324 24.2475C26.065 24.1406 25.7977 24.2208 25.6372 24.4347C25.5303 24.5684 25.4501 24.7555 25.4234 24.9694C25.1827 24.9427 24.9956 24.809 24.755 24.7822C24.5678 24.7555 24.3539 24.7822 24.1401 24.8892C24.1133 23.3118 24.1133 21.7077 24.0064 20.1303C23.9796 19.3014 23.8994 18.5796 23.739 17.9914C24.1935 17.2695 24.7015 16.4942 25.1827 16.0664C25.7442 15.5317 26.4126 15.2644 27.1077 15.2644C27.5087 15.2911 27.9365 15.3981 28.3643 15.6654C28.8188 15.9595 28.6851 16.3605 28.4177 16.3873C28.3375 16.3873 28.2573 16.3071 28.2306 16.2001C27.99 16.3605 28.0435 16.5744 28.3375 16.7081C28.7118 16.8418 29.0059 16.414 28.9525 16.013C28.899 15.5585 28.5247 15.2644 28.0435 15.0238C28.9257 15.0238 29.9149 14.9703 30.7437 14.6227C31.3854 14.3286 31.5725 13.8741 31.5993 13.3661C32.0538 13.2325 32.5618 12.9116 32.9895 12.8582C33.2569 12.8047 33.4708 12.8582 33.6312 13.0453C33.8183 13.2859 33.8183 13.5533 33.551 13.58C33.4708 13.6068 33.3906 13.5266 33.3371 13.3394C33.2836 13.6335 33.3638 13.8207 33.6312 13.8207C33.9788 13.7939 34.059 13.5533 33.9788 13.0721C33.8985 12.6978 33.6045 12.4839 33.3104 12.4037C33.5777 12.0026 33.8451 11.361 33.8718 11.0134C33.8985 10.5054 33.7114 10.2113 33.2034 10.2113C32.9093 10.2113 32.7489 10.3718 32.6687 10.6659C32.5618 10.2381 32.2142 10.0509 31.5458 10.1579C31.3052 10.2381 31.118 9.91726 30.824 9.91726C30.4229 9.94399 30.1823 10.2916 30.209 11.0134C30.2625 11.8957 30.5566 12.2433 31.2785 12.3235C31.8132 12.3769 32.4548 12.0561 32.6954 11.1738C32.6954 11.0669 32.7222 10.9599 32.6954 10.853C32.7489 10.9332 32.8559 10.9867 33.0163 11.0134C32.8291 10.6926 32.8826 10.5054 33.2302 10.4787C33.444 10.452 33.6045 10.7193 33.6045 10.9599C33.551 11.4412 33.2569 11.8957 32.8826 12.2967C32.5083 12.5641 32.0003 12.6978 31.5191 12.7512C31.2785 12.778 31.0378 12.5908 30.824 12.6176C30.5031 12.6176 30.3427 12.7512 30.316 13.0186C30.316 13.179 30.5566 13.2859 30.7437 13.2057C30.4229 13.0721 30.4229 12.8314 30.824 12.8314C31.0378 12.8582 31.225 12.9651 31.3052 13.3661C31.3319 13.7404 30.9844 13.9811 30.2625 14.3019C29.5139 14.5425 28.6851 14.5692 27.883 14.5692C28.1771 14.3019 28.4445 13.9811 28.6584 13.5533C28.792 13.179 28.8723 12.778 28.899 12.4037C29.0594 12.2967 29.1663 12.2967 29.2466 12.3502C29.3268 12.4037 29.3802 12.5106 29.3268 12.6443C29.2466 12.7512 29.1396 12.7512 29.0327 12.6978C29.1931 12.9116 29.407 12.8849 29.5406 12.671C29.6476 12.4839 29.5406 12.2433 29.3802 12.163C29.1931 12.1096 29.0594 12.1363 28.8723 12.2165C28.8455 11.7085 28.8188 11.1738 28.7118 10.6124C29.0594 10.5856 29.4872 10.4252 29.6476 10.5322C29.8347 10.6391 30.1021 10.9332 29.8615 11.2006C29.7813 11.254 29.6209 11.2006 29.5406 11.0669C29.4604 11.254 29.5406 11.3342 29.7278 11.361C30.0219 11.3877 30.1021 11.2273 30.1288 10.9867C30.1556 10.6124 30.0486 10.4252 29.7813 10.2648L30.1288 9.91726C30.3427 9.6499 30.4229 9.40928 30.4229 9.14193C30.3962 8.87457 30.2358 8.71416 30.0219 8.63395C29.7813 8.55374 29.6743 8.63395 29.5674 8.87457C29.5139 9.03498 29.5941 9.16866 29.7545 9.24887C29.7813 9.11519 29.7545 8.92804 29.8347 8.87457C29.9684 8.79436 30.1556 8.92804 30.209 9.11519C30.2625 9.2756 30.0754 9.56969 29.7011 9.97073C29.407 10.2113 29.0059 10.2381 28.6316 10.2916C28.4712 9.43602 28.0435 8.50027 28.0167 7.59126C28.0435 6.8694 28.5247 6.70899 28.899 7.00308C29.0327 7.16349 29.1396 7.19023 29.1129 7.40411C29.1129 7.67147 28.8455 7.56453 28.6851 7.45758C28.7118 7.72494 29.0861 7.85862 29.2466 7.618C29.407 7.19023 29.2198 6.8694 28.7386 6.65552C28.0167 6.4951 27.6959 6.84267 27.6424 7.56453C27.5622 8.36659 28.2306 9.75684 28.1504 10.2648C27.8296 9.62317 27.3751 9.46275 26.974 9.54296C26.8136 9.59643 26.7334 9.6499 26.6799 9.86379C26.5997 10.1579 26.7869 10.4252 27.1612 10.1846C26.8671 10.0777 26.8136 9.91726 27.0275 9.78358C27.2146 9.78358 27.3483 9.86379 27.5087 9.99746C28.0969 10.4787 28.3643 11.0936 28.4177 12.1898C28.4177 12.8849 28.1237 13.687 27.6959 14.5425C27.6424 14.5425 27.5889 14.5425 27.5355 14.5425C26.9206 14.5425 26.4661 14.6495 25.9848 14.8633C26.0383 14.7297 26.0383 14.5692 25.9313 14.4088C25.7977 14.2484 25.6907 14.2217 25.4768 14.2752C25.3164 14.3554 25.1827 14.4356 25.156 14.7029C25.1293 14.8633 25.263 15.0238 25.4768 14.8901C25.3432 14.8633 25.3432 14.7831 25.3699 14.7029C25.4501 14.5158 25.5303 14.4623 25.6372 14.489C25.7709 14.5158 25.7977 14.6495 25.7709 14.9435L25.8244 14.9168C25.7977 14.9435 25.7442 14.9435 25.7175 14.9703C25.5036 15.1307 24.9689 15.6387 24.7817 15.7456C24.2203 16.0664 24.0331 16.2803 23.5251 16.7883C23.4717 16.8685 23.4449 16.9487 23.4182 17.0289C23.3915 17.0022 23.3915 16.9487 23.3647 16.922C22.8033 15.6387 22.4825 14.4356 22.5092 13.3394C22.6161 12.6978 23.1508 12.27 24.0866 12.0561C24.648 11.9492 24.9421 12.0561 24.755 12.2967C24.6748 12.4037 24.4876 12.3769 24.3005 12.3502C24.3539 12.5106 24.4609 12.5908 24.6213 12.5908C24.8352 12.6176 25.0758 12.4571 25.0758 12.2967C25.1025 11.9759 24.9154 11.8155 24.648 11.8422C24.3005 11.8957 23.8994 11.8957 23.6321 11.8422C24.1401 11.4412 24.6748 11.0669 25.1025 10.5322C25.2095 10.345 25.156 10.1579 24.9956 9.99746C25.0758 9.81032 25.1293 9.54296 25.156 9.24887C24.5678 9.51622 24.3005 9.94399 24.3539 10.5054C24.5946 10.452 24.7817 10.345 24.9154 10.1579C24.9956 10.2381 24.9689 10.345 24.8887 10.4252C24.3807 10.9867 23.7123 11.4947 23.0172 12.0026C22.6429 12.163 22.3488 12.163 22.2686 11.869C22.0012 11.0402 22.0279 10.1044 22.1349 9.16866C22.5359 8.74089 22.8567 8.31312 23.0172 7.91209C23.0706 7.77841 23.0974 7.67147 23.0172 7.53779C22.937 7.37738 22.7231 7.29717 22.6429 7.43085C22.5894 7.56453 22.6161 7.67147 22.6963 7.67147C22.6963 7.56453 22.7765 7.43085 22.8567 7.56453C22.9102 7.6982 22.8835 7.80515 22.83 7.91209C22.6696 8.25965 22.4557 8.39333 22.4022 8.23292C22.429 7.43085 22.3488 6.73572 22.0012 6.06733C21.6536 5.58609 21.1189 5.21179 20.5842 5.18506C20.3436 5.18506 20.1297 5.292 19.996 5.50589C19.9693 5.79998 20.1832 6.01386 20.4505 6.06733C20.2901 5.88018 20.2099 5.71977 20.2901 5.55936C20.504 5.39894 20.7714 5.39894 21.0387 5.50589C21.6804 5.79998 22.0012 6.38816 22.0814 7.02981C22.1616 7.80515 22.2151 8.58048 21.8675 9.24887C21.4665 8.92804 20.8516 8.15271 20.8248 7.9923C20.8516 7.67147 21.0387 7.75167 21.1724 7.80515C21.2259 7.88535 21.1724 7.96556 21.0387 8.0725C21.3061 8.09924 21.3596 7.9923 21.3328 7.83188C21.2793 7.618 21.0922 7.53779 20.7981 7.64473C20.611 7.72494 20.611 8.20618 20.8516 8.47354L21.7873 9.54296C21.5734 11.1738 22.0547 12.1898 21.9477 13.4464C21.7339 13.3127 21.6002 12.9116 21.3328 12.8047C21.0922 12.6978 20.8248 12.6978 20.5842 12.8047C20.4238 12.8849 20.4238 13.0721 20.4505 13.2592C20.5308 13.5533 20.8248 13.5533 20.9585 13.3127C20.6912 13.3661 20.5842 13.2057 20.6377 13.0721C20.7714 12.9116 20.9318 12.8582 21.1457 12.9116C21.3596 12.9918 21.5734 13.2859 21.7606 13.6335C21.7071 14.1415 21.7606 14.596 21.8675 14.997C22.0814 15.6387 22.2686 16.2803 22.429 16.922C22.429 16.8952 22.4022 16.8952 22.4022 16.8685C21.921 16.3605 21.7071 16.1466 21.1457 15.8258C20.9585 15.7189 20.4238 15.2109 20.2099 15.0505C20.1832 15.0238 20.1297 14.997 20.103 14.997L20.1565 15.0238C20.1297 14.7297 20.1565 14.6227 20.2901 14.5692C20.3971 14.5425 20.4773 14.596 20.5575 14.7831C20.5842 14.8633 20.5842 14.9435 20.4505 14.9703C20.6644 15.104 20.7981 14.9435 20.7714 14.7831C20.7179 14.5158 20.611 14.4356 20.4505 14.3554C20.2634 14.3019 20.1565 14.3286 19.996 14.489C19.9158 14.6227 19.8891 14.7831 19.9426 14.9435C19.4613 14.7297 19.0068 14.6227 18.3919 14.6227C18.3384 14.6227 18.285 14.6227 18.2315 14.6227C17.8037 13.7672 17.5096 12.9651 17.5096 12.27C17.5364 11.1738 17.8037 10.5589 18.4186 10.0777C18.5791 9.94399 18.7127 9.86379 18.8999 9.86379C19.1138 10.0242 19.0603 10.1579 18.7662 10.2648C19.1405 10.5054 19.3277 10.2381 19.2474 9.94399C19.194 9.73011 19.1138 9.67664 18.9534 9.62317C18.5523 9.54296 18.0978 9.73011 17.777 10.345C17.6968 9.83705 18.3652 8.4468 18.285 7.64473C18.2315 6.92287 17.9107 6.54857 17.1888 6.73572C16.7076 6.94961 16.5204 7.27043 16.6808 7.6982C16.8412 7.93882 17.2155 7.83188 17.2423 7.53779C17.0819 7.64473 16.8145 7.72494 16.8145 7.48432C16.8145 7.27043 16.8947 7.2437 17.0284 7.08329C17.4027 6.78919 17.8839 6.94961 17.9107 7.67147C17.9107 8.58048 17.4829 9.48949 17.2957 10.3718C16.9214 10.3183 16.5204 10.2916 16.2263 10.0509C15.852 9.6499 15.6649 9.35581 15.7183 9.1954C15.7718 9.00825 15.959 8.87457 16.0926 8.95478C16.1996 9.00825 16.1461 9.1954 16.1729 9.32907C16.3333 9.24887 16.4135 9.11519 16.36 8.95478C16.2531 8.68742 16.1461 8.60721 15.9055 8.71416C15.6916 8.79436 15.5579 8.95478 15.5045 9.22213C15.5045 9.48949 15.5847 9.73011 15.7986 9.99746L16.1461 10.345C15.8788 10.5054 15.7718 10.6926 15.7986 11.0669C15.8253 11.3075 15.9322 11.4679 16.1996 11.4412C16.3867 11.3877 16.4669 11.3342 16.3867 11.1471C16.3065 11.254 16.1194 11.3075 16.0659 11.2808C15.8253 11.0134 16.0926 10.7193 16.2798 10.6124C16.4402 10.5054 16.868 10.6659 17.2155 10.6926C17.1353 11.254 17.0819 11.7887 17.0551 12.2967C16.868 12.2165 16.7343 12.1898 16.5472 12.2433C16.36 12.3235 16.2798 12.5641 16.3867 12.7512C16.5204 12.9918 16.761 13.0186 16.8947 12.778C16.7878 12.8314 16.6808 12.8314 16.6006 12.7245C16.5472 12.5908 16.6006 12.4839 16.6808 12.4304C16.761 12.3769 16.8947 12.4037 17.0284 12.4839C17.0551 12.8582 17.1086 13.2592 17.269 13.6335C17.4829 14.0613 17.7503 14.4088 18.0443 14.6495C17.2155 14.6495 16.4135 14.6227 15.6649 14.3821C14.943 14.0613 14.5955 13.7939 14.6222 13.4464C14.7024 13.0186 14.8895 12.9384 15.1034 12.9116C15.4777 12.9116 15.5045 13.1523 15.1836 13.2859C15.3975 13.3661 15.6114 13.2592 15.6114 13.0988C15.5847 12.8314 15.4243 12.6978 15.1034 12.6978C14.8628 12.6978 14.6489 12.8582 14.4083 12.8314C13.9271 12.778 13.4458 12.6176 13.0448 12.3769C12.6705 11.9759 12.3764 11.5214 12.3229 11.0402C12.3229 10.8263 12.4833 10.5589 12.6972 10.5589C13.0448 10.5856 13.0715 10.7728 12.9111 11.0936C13.0448 11.0669 13.125 11.0402 13.2052 10.9867C13.2052 11.0669 13.2052 11.1204 13.2319 11.2006C13.4726 12.0828 14.1409 12.4304 14.7024 12.3769C15.451 12.2967 15.7718 11.9224 15.7986 11.0134C15.8253 10.2648 15.5847 9.91726 15.1569 9.89052C14.8361 9.89052 14.6489 10.2113 14.4083 10.1311C13.7399 10.0242 13.3656 10.2113 13.2587 10.6391C13.1785 10.4252 13.0181 10.2648 12.7507 10.2916C12.2427 10.2916 12.0556 10.6124 12.0823 11.0936C12.109 11.4412 12.3764 12.0828 12.6438 12.4839C12.3497 12.5641 12.0556 12.778 11.9754 13.1523C11.8952 13.6068 11.9754 13.8741 12.3229 13.9009C12.5903 13.8741 12.6972 13.7137 12.617 13.4196C12.5635 13.6068 12.4833 13.6602 12.4031 13.6602C12.1358 13.6335 12.1358 13.3394 12.3229 13.1255C12.4566 12.9384 12.6705 12.8849 12.9646 12.9384C13.3924 12.9918 13.9003 13.2859 14.3548 13.4464C14.3548 13.9543 14.5687 14.3821 15.2104 14.7029C16.0659 15.0238 17.0284 15.104 17.9107 15.104C17.4294 15.3446 17.0551 15.6387 17.0017 16.0932C16.9482 16.4942 17.2423 16.922 17.6166 16.7883C17.9107 16.6814 17.9641 16.4407 17.7235 16.2803C17.67 16.414 17.6166 16.4675 17.5364 16.4675C17.269 16.4407 17.1353 16.0397 17.5898 15.7456C18.0176 15.4783 18.4454 15.3713 18.8464 15.3446C19.5415 15.3713 20.1832 15.6387 20.7446 16.1466C21.4665 16.7883 22.2686 18.1251 22.7765 19.0608C22.7765 19.0074 22.7765 18.9271 22.8033 18.8737C22.937 19.7025 23.0172 20.5045 23.0706 21.3334C22.6429 21.2264 22.1884 20.9858 21.7873 20.665C21.52 20.2907 21.3596 19.8896 21.3596 19.4619C21.3863 19.2747 21.5467 19.1143 21.7606 19.1143C21.8675 19.141 22.0279 19.1678 22.0814 19.248C22.1082 19.3014 22.1349 19.3817 22.1082 19.4619C22.0547 19.5955 22.0012 19.5955 21.8141 19.6757C21.9745 19.7025 22.2151 19.6757 22.2686 19.4886C22.2953 19.3282 22.322 19.1945 22.1884 19.0341C22.0547 18.9004 21.8675 18.8469 21.6804 18.8737C21.413 18.9004 21.2259 19.0608 21.1457 19.3014C21.0655 19.5955 21.1189 19.8896 21.2259 20.1837C21.3328 20.4778 21.6536 20.8254 21.7071 21.0393C21.4932 21.0927 21.2259 21.1462 21.0922 21.4136C20.9853 21.6274 20.9585 21.8413 20.9853 22.0552C21.0655 22.3226 21.2259 22.4028 21.413 22.4028C21.6269 22.4028 21.7071 22.1354 21.6804 21.9215C21.5734 22.0017 21.52 22.2156 21.3863 22.1889C21.2526 22.1354 21.1991 22.0552 21.2259 21.9215C21.3061 21.574 21.4665 21.467 21.7873 21.4136C22.1082 21.3868 22.7231 21.6809 23.1508 21.9215C23.1776 23.2048 23.3915 29.0599 20.9051 27.6162C20.5308 27.2687 20.1565 26.6805 19.9426 26.1992C20.0762 25.8517 20.3436 25.5308 20.6912 25.2635C20.9585 25.1031 21.2793 25.1031 21.5734 25.1031C21.8141 25.1031 22.1082 25.3437 22.0547 25.5843C22.0012 25.718 21.8943 25.7715 21.7873 25.7715C21.6536 25.7715 21.6002 25.6913 21.5734 25.5041C21.4932 25.6645 21.52 25.7982 21.6269 25.9051C21.7606 25.9853 21.8943 26.0121 22.0547 25.9586C22.2151 25.8517 22.2953 25.718 22.2953 25.5308C22.2953 25.3437 22.1616 25.1833 22.0012 25.0496C21.7606 24.9159 21.52 24.8892 21.3061 24.9159C21.0655 24.9427 20.8783 25.0763 20.6377 25.1031C20.611 24.8892 20.5308 24.7288 20.4238 24.5684C20.2634 24.3277 19.996 24.2743 19.7287 24.3812C19.5415 24.5416 19.6217 24.9159 19.8624 24.8892C19.8356 24.809 19.7822 24.702 19.8356 24.6486C19.9158 24.5416 20.0228 24.5416 20.1297 24.6218C20.2901 24.702 20.3703 24.8357 20.3436 24.9961C20.2367 25.3972 20.0228 25.611 19.8089 25.7982L19.5415 24.809L19.4079 23.3385L19.0336 22.6701L19.2474 23.0444L19.0336 22.376C18.8999 22.1087 18.8999 21.6007 19.0603 21.574C19.3009 21.5205 19.595 21.6542 19.595 21.8146C19.595 21.9483 19.4881 22.0285 19.3009 22.082C19.4881 22.1622 19.7287 22.1889 19.8089 22.0017C19.8624 21.8146 19.8624 21.5205 19.7019 21.3601C19.5415 21.1729 19.3544 21.1462 19.1672 21.1729C19.3544 20.7986 19.5148 20.2907 19.5683 19.8896C19.6217 19.248 19.5148 18.5796 19.3009 18.3122C19.1672 18.1518 19.0336 17.8577 19.087 17.6973C19.194 17.5102 19.3009 17.5904 19.5148 17.7508C19.4613 17.4834 19.3544 17.3498 19.1138 17.3765C18.9534 17.3765 18.8464 17.5102 18.8197 17.7508C18.7929 17.9112 18.8731 18.0716 18.8464 18.2053C18.6058 18.1518 18.3652 18.339 18.3384 18.5261C18.3117 18.9539 18.6593 19.0341 18.7395 18.74C18.686 18.6865 18.5791 18.7133 18.5791 18.6063C18.5523 18.4726 18.6593 18.3924 19.0068 18.4192C19.1405 18.4726 19.2474 18.7133 19.3277 19.141C19.3811 19.7025 19.2474 20.2639 19.0336 20.7986L18.5791 21.9215C18.285 21.3868 17.8305 21.0393 17.4294 20.8788C16.8145 20.2639 16.1996 19.756 15.5312 19.4084C15.1569 19.2212 14.3014 18.6063 14.2212 18.339C14.1944 18.2053 14.1944 18.0449 14.3548 17.9112C14.4618 17.8043 14.6757 17.9112 14.7559 18.0449C14.8093 18.1251 14.7024 18.1786 14.6757 18.2588C14.8895 18.232 15.0232 18.1786 14.9698 18.0181C14.9163 17.831 14.7826 17.6706 14.5152 17.5904C14.5955 17.4834 14.7024 17.43 14.7826 17.323C14.7826 17.43 14.8093 17.5636 14.8895 17.6973C15.3441 17.5636 15.3708 17.2695 15.1569 16.8685C15.0232 16.922 14.943 17.0022 14.8895 17.0557C14.943 16.815 14.8895 16.5744 14.6489 16.3873C14.435 16.2536 14.1409 16.3071 14.034 16.5477C13.9805 16.7883 14.1142 17.0557 14.3548 17.0022C14.2479 16.815 14.2212 16.6546 14.3548 16.5209C14.5687 16.4675 14.7291 16.7883 14.6489 16.9755C14.542 17.2428 13.9805 17.6171 13.9003 17.9112C13.8469 18.4192 14.2479 18.6063 14.4083 18.9806C13.9003 18.8202 13.4191 18.5529 12.9913 18.2588C12.5903 17.9914 12.1625 17.5369 11.6813 16.8685C11.4407 16.5477 11.3872 16.013 11.5476 15.7724C11.7615 15.505 11.9754 15.4248 12.1625 15.5317C12.3497 15.6387 12.4566 15.8526 12.4566 16.1734C12.6705 15.9862 12.6972 15.7724 12.4566 15.505C12.2427 15.3446 11.9486 15.2376 11.6813 15.3178C11.1198 15.5852 11.307 16.1466 11.0396 16.2001C10.6119 16.3338 10.1841 16.3338 9.72958 16.2269C9.16813 16.0932 8.8473 15.6654 8.63342 15.3446C8.49974 15.1307 8.49974 14.9435 8.79383 14.7297C8.92751 14.6495 9.06119 14.6495 9.19487 14.7297C9.32854 14.8633 9.27507 14.9703 9.08792 15.104C9.32854 15.104 9.46222 15.0505 9.46222 14.8633C9.32854 14.489 9.08792 14.3554 8.82057 14.4088C8.36606 14.5425 8.20565 14.8366 8.31259 15.3446C8.44627 15.7991 8.8473 16.1734 9.35528 16.4942C9.16813 16.6279 9.00772 16.8685 8.98098 17.1359C8.12544 17.0022 7.6442 17.2963 7.51052 18.7667C8.25912 18.6865 8.7671 18.2855 9.00772 17.5102C9.00772 17.5369 9.03445 17.5369 9.03445 17.5636C9.27507 17.9379 9.40875 17.8845 9.62264 17.8577C9.88999 17.7775 9.9702 17.5369 9.78305 17.3498C9.70284 17.5904 9.5959 17.6438 9.46222 17.5904C9.27507 17.5102 9.30181 17.2963 9.38202 17.1091C9.48896 16.8685 9.64937 16.7348 9.91673 16.7081C10.2108 16.7348 10.6653 16.6546 11.2535 16.7616C11.6011 17.43 12.0823 17.9647 12.6705 18.3924C13.5528 19.0074 14.4083 19.4619 15.2371 19.7025C15.7451 19.9164 16.2263 20.2372 16.7076 20.665L16.3065 20.5848C16.0124 20.5313 15.7183 20.665 15.4243 20.7719C14.9698 20.8788 14.3014 21.1462 13.9003 20.9323C13.6597 20.7452 13.6864 20.5848 13.8201 20.4778C13.9538 20.3441 14.0875 20.4511 14.1142 20.6115C14.2746 20.4511 14.1944 20.3174 14.0073 20.2105C13.7667 20.2105 13.5795 20.3174 13.4993 20.6382C13.4191 20.9858 13.6597 21.1462 14.0073 21.2531C14.4618 21.3066 14.9163 21.2531 15.3173 21.0927C15.3708 21.3868 15.5579 21.6809 15.852 21.9483C16.0124 22.0819 16.3867 22.1087 16.4669 21.8681C16.5472 21.6007 16.4135 21.4403 16.2263 21.3868C16.0926 21.3601 15.9857 21.467 16.0659 21.6274C16.1194 21.4136 16.2798 21.6274 16.3333 21.7077C16.3867 21.8681 16.0659 21.9483 15.8788 21.7077C15.6916 21.467 15.6649 21.2264 15.6916 21.1195C15.7183 20.9056 15.959 20.8521 16.1729 20.8788C16.6808 20.9056 17.0284 21.1729 17.376 21.6007C17.269 22.1087 16.6006 22.991 15.9055 23.3385C15.5579 23.4187 15.1569 23.4455 14.6222 23.392C13.9805 23.2851 13.633 23.1514 13.526 22.9375C13.4191 22.7236 13.3924 22.5097 13.5795 22.483C13.7934 22.483 13.7934 22.6167 13.7667 22.8305C13.9271 22.6969 14.0073 22.5899 13.9538 22.4562C13.8736 22.3226 13.7667 22.2424 13.633 22.2424C13.2854 22.2958 13.2052 22.5097 13.2587 22.8038L12.0556 22.1087C11.9219 22.0017 11.8952 21.8681 11.9486 21.7344C12.0288 21.574 12.109 21.7611 12.1358 21.8948C12.2695 21.6809 12.2695 21.5205 12.0288 21.467C11.8417 21.4403 11.708 21.6007 11.6545 21.7879C11.2535 21.7611 10.9594 21.7611 10.5584 21.7077C10.2376 21.6809 9.91673 21.6809 9.64937 21.7077C9.30181 21.7611 8.92751 21.7344 8.60668 21.6809C7.93829 21.5472 7.51052 20.9056 7.564 20.5848C7.61747 20.3174 7.75114 20.0768 8.09871 19.9698C7.67094 19.8094 7.32338 20.0233 7.21643 20.5313C7.16296 20.8521 7.40358 21.2264 7.91156 21.6274C8.60668 22.0819 9.48896 22.2156 10.5049 22.1087C10.1573 22.2691 10.0771 22.4295 10.1039 22.7503C10.1306 22.9375 10.2108 23.1246 10.5049 23.1246C10.6653 23.0979 10.6921 22.8573 10.6119 22.6969C10.5316 22.884 10.4247 22.9375 10.3178 22.8305C10.2108 22.6434 10.4247 22.5365 10.6386 22.376C11.0129 22.1622 11.2268 22.1354 11.5209 22.2156C12.109 22.4028 12.6705 22.991 13.2854 23.6594C12.7774 23.6059 12.1893 23.5791 11.8952 23.6594C11.6545 23.7396 11.4941 23.9267 11.2535 23.8732C10.9594 23.7396 10.8257 23.6326 10.9059 23.5257C11.0396 23.3653 11.2 23.4187 11.3872 23.6059C11.4139 23.3653 11.2802 23.2316 10.9862 23.2316C10.7455 23.2583 10.6386 23.392 10.6119 23.6059C10.6119 23.7663 10.7455 23.8732 10.9327 23.9534C10.5049 24.1673 10.0771 24.3812 9.70284 24.7288C9.48896 24.8625 8.79383 24.7555 7.99177 23.9802C7.72441 23.5524 7.6442 23.2048 7.77788 23.0444C7.93829 22.884 8.12544 22.8573 8.28586 23.0177C8.36606 23.1514 8.28586 23.2583 8.12544 23.392C8.25912 23.392 8.41953 23.3653 8.49974 23.2316C8.55321 23.0444 8.55321 22.884 8.41953 22.7771C8.33933 22.6701 7.96503 22.5899 7.72441 22.7236C7.53726 22.8573 7.48379 23.1246 7.48379 23.3385C7.48379 23.6861 7.77788 24.1673 7.96503 24.4347C7.75115 24.4882 7.564 24.5951 7.43032 24.7822C7.29664 24.9159 7.2699 25.4239 7.48379 25.5041C7.77788 25.5843 8.0185 25.4774 7.99177 25.21C7.85809 25.2902 7.59073 25.4239 7.59073 25.21C7.564 25.0763 7.6442 24.9159 7.80462 24.8357C8.0185 24.7555 8.25912 24.7555 8.47301 24.8357C8.68689 24.9159 8.95425 25.0763 9.16813 25.1031L8.17891 26.0656C7.91156 26.3596 7.59073 26.5201 7.16296 26.5468C6.78866 26.5468 6.57478 26.3596 6.52131 26.1458C6.49457 25.8784 6.60151 25.718 6.84214 25.6645C6.97581 25.6378 6.97581 25.7982 7.05602 25.8517C7.13623 25.5843 7.08276 25.4239 6.86887 25.3972C6.62825 25.3437 6.38763 25.5308 6.30742 25.8517C6.25395 26.119 6.25395 26.3062 6.41437 26.4666C6.65499 26.7607 6.94908 26.8676 7.29664 26.8676C7.6442 26.8409 7.91156 26.7339 8.17891 26.5468L9.56916 25.3437C9.46222 25.7715 9.51569 26.1725 9.78305 26.4666C10.0771 26.7607 10.398 26.7072 10.5049 26.5201C10.6119 26.3329 10.5049 26.0656 10.2108 26.0121C10.2376 26.1458 10.3445 26.3329 10.2376 26.3596C9.99693 26.4399 9.88999 26.3062 9.88999 25.9853C9.91673 25.6645 9.99693 25.3437 10.1573 25.0763C10.6119 24.5416 11.0931 24.1941 11.5476 24.2475C10.9327 24.5951 10.799 24.9694 10.9059 25.3437C11.0396 25.6645 11.2535 25.8249 11.5209 25.9051C11.815 25.9853 12.1358 25.9586 12.2695 25.7715C12.3764 25.5843 12.2962 25.317 12.109 25.2635C11.9754 25.2367 11.8684 25.2635 11.7882 25.3972C12.0021 25.4239 12.0823 25.5308 12.0823 25.6645C12.0823 25.7982 11.9486 25.7982 11.6545 25.6913C11.4139 25.5843 11.2802 25.4506 11.2268 25.2635C11.2268 24.9694 11.4674 24.7288 11.815 24.5684C12.3497 24.3545 12.6705 24.2743 13.3924 24.3277C13.9271 24.3545 14.435 24.1673 14.9698 24.0871C14.9965 24.0871 15.05 24.0871 15.0767 24.0871C15.1569 24.2475 15.2104 24.4614 15.1836 24.702C15.1569 25.0496 15.1034 25.3437 14.943 25.5843C14.8361 25.7715 14.6757 25.9319 14.4083 25.9853C14.2479 26.0121 14.1142 25.8784 14.1142 25.6913C14.1409 25.5576 14.2746 25.5308 14.4618 25.611C14.4618 25.4506 14.3816 25.3704 14.2479 25.3437C14.0073 25.3437 13.8736 25.4774 13.9003 25.7715C13.9003 25.9853 14.0607 26.119 14.3014 26.1725C14.6757 26.1725 14.8895 26.0656 15.0767 25.8249C15.2104 25.6645 15.344 25.4506 15.451 25.2635C15.6114 25.4506 15.852 25.5576 16.0926 25.5576C16.3333 25.5308 16.4669 25.4239 16.4937 25.2635C16.5204 25.0229 16.4135 24.8892 16.2531 24.8625C16.1194 24.8357 16.0659 24.8892 16.0659 25.0229C16.1729 24.9961 16.2531 25.0496 16.2798 25.1833C16.2798 25.2902 16.2263 25.3437 15.9857 25.317C15.7183 25.2635 15.5579 25.1565 15.5312 25.0229L15.5045 24.0336C15.7986 23.9802 16.0659 23.8732 16.3065 23.7128L16.4402 23.7663C16.4937 24.0336 16.6006 24.1941 16.7878 24.2743C17.0017 24.3277 17.1621 24.2475 17.2155 24.0871C17.2957 23.8465 17.2423 23.6861 17.0551 23.6326C17.1086 23.7396 17.1621 24.0069 17.0819 24.0336C17.0017 24.0604 16.9214 24.0871 16.8412 24.0871C16.6808 24.0336 16.6274 23.793 16.7076 23.6326C17.1621 23.0177 17.5631 22.6434 17.9641 22.4295C18.2048 22.3226 18.4721 22.6701 18.7662 23.4187L18.8999 24.9427L18.2048 24.7288C17.9107 24.5416 17.6968 24.2743 17.6166 23.9267C17.5364 23.5257 17.5898 23.2583 17.9374 23.2583C18.0711 23.2316 18.1513 23.2851 18.2048 23.4455C18.2315 23.6059 18.0978 23.6861 17.9641 23.6861C18.0711 23.7663 18.178 23.7663 18.3117 23.6861C18.3652 23.5524 18.4186 23.392 18.3652 23.2583C18.2048 23.0177 18.0711 22.9375 17.8572 22.9642C17.6433 22.991 17.5096 23.1514 17.4294 23.3385C17.3492 23.6861 17.4294 23.9802 17.4829 24.2475C17.5631 24.4614 17.7503 24.6218 17.8037 24.7822C17.8037 24.9159 17.3225 24.9694 17.2423 25.317C17.1888 25.5308 17.2423 25.7447 17.4027 25.8784C17.5364 25.9586 17.67 25.9586 17.8037 25.8784C17.8839 25.7447 17.8839 25.6645 17.777 25.5843C17.7503 25.6913 17.6968 25.7715 17.6433 25.7715C17.5364 25.7982 17.4562 25.7447 17.4027 25.5843C17.376 25.3704 17.5096 25.2902 17.6433 25.21C17.8305 25.1298 18.0711 25.1565 18.4186 25.2635C18.6593 25.317 18.8464 25.4239 19.0068 25.611C19.1672 26.4398 19.4881 27.1884 19.9426 27.8301C19.8891 27.9103 19.8624 28.0173 19.8356 28.1509C19.4613 28.3381 19.087 28.445 18.6593 28.4183C18.3384 28.4183 17.9909 28.3648 17.67 28.2311C17.1888 28.044 16.9482 27.8568 16.7878 27.5895C16.6006 27.2954 16.7076 26.8944 17.1353 26.6537C16.6808 26.6805 16.4937 26.8944 16.4669 27.4558C16.4937 27.7766 16.868 28.1509 17.376 28.4985C17.1086 28.8461 16.36 28.8995 15.8253 28.7658L14.943 28.5252C14.8628 28.4985 14.7826 28.4985 14.7024 28.4985C14.943 28.2311 14.9965 27.9638 14.7559 27.6697C14.5152 27.9638 14.4885 28.2311 14.6489 28.5252C14.5687 28.5252 14.4885 28.552 14.435 28.5787C14.2479 28.6589 14.1944 28.9263 14.3014 29.0065C14.435 29.1134 14.5687 29.1401 14.6757 28.9797C14.5955 28.9797 14.4618 28.953 14.4618 28.8728C14.435 28.7124 14.542 28.6589 14.7291 28.6589C15.1302 28.6589 15.2638 28.7926 15.2104 29.0065C14.9965 29.4075 14.5955 29.6214 14.2479 29.7283C13.8736 29.7818 13.526 29.7283 13.125 29.7551C12.5903 29.7283 12.0556 29.5679 11.5476 29.0332C11.2802 28.8461 10.9327 28.3113 10.9059 28.0975C10.8792 27.8836 10.9594 27.7766 11.1198 27.7232C11.3872 27.6697 11.3604 27.9103 11.3337 28.0975C11.5743 27.9103 11.6545 27.7499 11.5209 27.643C11.2535 27.4825 11.0129 27.4291 10.7723 27.6697C10.6119 27.8836 10.6921 28.2044 10.9059 28.5787L10.1039 27.9905C9.54243 27.5093 9.03445 27.2687 8.60668 27.3756C8.25912 27.536 8.12544 27.8034 8.17891 28.1242C8.23239 28.445 8.44627 28.6322 8.7671 28.6589C9.00772 28.6589 9.00772 28.4985 8.7671 28.1777C8.7671 28.4183 8.71363 28.5252 8.55321 28.3915C8.3928 28.2846 8.36606 28.1777 8.3928 28.0173C8.3928 27.8836 8.47301 27.8034 8.57995 27.7232C8.74036 27.6697 8.90078 27.6697 9.06119 27.7499C9.38202 27.8836 9.64937 28.0707 9.86326 28.2846C10.2108 28.6589 10.5584 28.9263 10.9059 29.1669C11.2535 29.4075 11.6011 29.6481 11.9486 29.8887C11.7882 30.0224 11.8417 30.1828 11.8952 30.3165C12.0021 30.5037 12.1358 30.5839 12.2695 30.5304C12.4299 30.4769 12.4833 30.263 12.4031 30.1294C12.2962 30.3165 12.0556 30.37 12.0556 30.2363C12.0556 30.1026 12.109 30.0492 12.2427 29.9957C12.4833 29.9689 12.7507 30.0492 12.9646 30.1026C13.1785 30.1828 13.5795 30.0492 13.6597 30.1828L13.0983 30.6641C12.9378 30.7978 12.8309 30.9582 12.7774 31.1186C12.7507 31.3325 12.8309 31.5196 13.0715 31.5998C13.2052 31.6266 13.3121 31.5731 13.3656 31.4127C13.1517 31.4127 12.8576 31.4127 12.9913 31.1453C13.2052 30.8512 13.4191 30.6106 13.7399 30.3967L14.542 29.862L15.3975 29.4877C15.2638 29.7283 15.1569 29.9155 15.05 30.1561C14.8895 30.4502 14.943 30.771 15.1302 30.9849C15.3441 31.2523 15.6916 31.3325 16.0392 31.3325C15.6381 31.1988 15.2638 30.8512 15.2104 30.5304C15.2104 30.263 15.3441 29.9957 15.5847 29.7283C15.852 29.354 16.3065 29.0332 16.7343 28.9797L17.67 28.7391C17.9641 28.7926 18.3117 28.7926 18.4721 28.953C18.4186 29.461 18.285 29.7818 18.1246 30.0492C17.8839 30.6106 17.6166 31.1186 17.376 31.1988C17.1353 31.2523 17.269 30.9582 17.269 30.7978C17.1353 30.8512 17.0551 31.172 17.1353 31.2523C17.2155 31.3325 17.2957 31.3859 17.4829 31.3325C17.777 31.2523 18.285 30.3967 18.4186 29.8887C18.4186 30.2898 18.4454 30.4769 18.6593 30.771C18.7929 30.9314 19.0068 30.9314 19.1672 30.6908C19.194 30.6641 19.1672 30.5839 19.1405 30.5304C19.4881 30.5037 19.6217 30.37 19.6217 29.9957C19.3009 29.9957 19.194 30.2096 19.1405 30.5037C19.087 30.4235 19.0336 30.37 18.9801 30.37C19.087 30.5304 19.087 30.6641 18.9801 30.7175C18.8197 30.6908 18.7127 30.6106 18.6593 30.3432C18.6058 29.9422 18.7127 29.5679 18.9266 29.1936C19.0603 28.9797 19.5415 28.4718 19.8089 28.5787C19.8891 28.6054 19.9693 28.6054 20.0495 28.6856C20.9051 29.5144 22.2953 30.0224 22.1349 31.3057C22.0012 32.5623 21.3596 32.7494 21.7339 34.3001C22.0012 35.4497 22.429 36.5459 22.429 37.3212C22.4557 39.1393 17.3492 39.8611 15.1569 40.0483C11.3678 40.373 7.90527 41.2088 4.19531 42.0394V42.2406H43.0688V42.0394C40.0501 41.484 35.0094 39.9904 32.7222 39.5329ZM19.8624 27.9638C19.8356 27.9103 19.8356 27.8568 19.8356 27.8301L19.8891 27.9103V27.9638H19.8624Z" fill="white"/>
</g>
<defs>
<linearGradient id="paint0_linear" x1="23.6014" y1="0" x2="23.6014" y2="47.2028" gradientUnits="userSpaceOnUse">
<stop stop-color="#FF8500"/>
<stop offset="0.260417" stop-color="#FF7900"/>
<stop offset="0.6875" stop-color="#FF6D00"/>
<stop offset="1" stop-color="#FA6000"/>
</linearGradient>
<linearGradient id="paint1_linear" x1="47.2028" y1="23.6014" x2="2.80068e-07" y2="23.6014" gradientUnits="userSpaceOnUse">
<stop stop-color="#FF8500"/>
<stop offset="0.260417" stop-color="#FF7900"/>
<stop offset="0.6875" stop-color="#FF6D00"/>
<stop offset="1" stop-color="#FA6000"/>
</linearGradient>
</defs>
</svg>
