<svg width="81" height="80" viewBox="0 0 81 80" fill="none" xmlns="http://www.w3.org/2000/svg">
<path d="M21.2412 12.9688C20.3787 12.9688 19.6787 13.6688 19.6787 14.5313C19.6787 15.3938 20.3787 16.0938 21.2412 16.0938C22.1037 16.0938 22.8037 15.3938 22.8037 14.5313C22.8037 13.6688 22.1037 12.9688 21.2412 12.9688Z" fill="#841F65"/>
<path d="M40.4601 0C18.9007 0 0.459961 18.4065 0.459961 40.0002C0.459961 61.5645 18.8686 80.0003 40.4601 80.0003C62.0196 80.0003 80.4603 61.5939 80.4603 40.0002C80.4603 18.4359 62.0516 0 40.4601 0ZM40.4601 76.8753C20.4718 76.8753 3.58497 59.9885 3.58497 40.0002C3.58497 20.0118 20.4718 3.12501 40.4601 3.12501C60.4485 3.12501 77.3353 20.0118 77.3353 40.0002C77.3353 59.9885 60.4485 76.8753 40.4601 76.8753Z" fill="#841F65"/>
<path d="M40.4601 6.71887C35.4499 6.71887 30.1499 7.87513 25.9191 9.89123C25.1402 10.2625 24.8094 11.195 25.1807 11.9739C25.5518 12.7528 26.4839 13.0839 27.2633 12.7123C31.0888 10.8894 35.899 9.84389 40.4601 9.84389C56.8066 9.84389 70.6165 23.6538 70.6165 40.0003C70.6165 56.3467 56.8066 70.1566 40.4601 70.1566C24.1136 70.1566 10.3037 56.3467 10.3037 40.0003C10.3037 32.5337 13.043 25.1744 17.8192 19.8094C18.3931 19.1649 18.3358 18.1772 17.6913 17.6034C17.0466 17.0294 16.0592 17.0874 15.4853 17.7314C10.2062 23.6611 7.17871 31.7777 7.17871 40.0003C7.17871 58.0828 22.3511 73.2817 40.4601 73.2817C58.5427 73.2817 73.7415 58.1092 73.7415 40.0003C73.7415 21.9177 58.5691 6.71887 40.4601 6.71887Z" fill="#841F65"/>
<path d="M59.2101 32.1876H48.2726V21.25C48.2726 20.3872 47.5729 19.6875 46.7101 19.6875H34.21C33.3472 19.6875 32.6475 20.3872 32.6475 21.25V32.1876H21.71C20.8472 32.1876 20.1475 32.8872 20.1475 33.7501V46.2501C20.1475 47.1129 20.8472 47.8126 21.71 47.8126H32.6475V58.7502C32.6475 59.613 33.3472 60.3127 34.21 60.3127H46.7101C47.5729 60.3127 48.2726 59.613 48.2726 58.7502V47.8126H59.2101C60.0729 47.8126 60.7726 47.1129 60.7726 46.2501V33.7501C60.7726 32.8872 60.0729 32.1876 59.2101 32.1876ZM57.6476 44.6876H46.7101C45.8473 44.6876 45.1476 45.3873 45.1476 46.2501V57.1877H35.7725V46.2501C35.7725 45.3873 35.0728 44.6876 34.21 44.6876H23.2725V35.3126H34.21C35.0728 35.3126 35.7725 34.6129 35.7725 33.7501V22.8125H45.1476V33.7501C45.1476 34.6129 45.8473 35.3126 46.7101 35.3126H57.6476V44.6876Z" fill="#841F65"/>
</svg>
