<svg width="100" height="88" viewBox="0 0 100 88" fill="none" xmlns="http://www.w3.org/2000/svg">
<path d="M50.0567 87.144C41.5277 87.144 35.5626 85.0727 29.2471 82.8798C21.9306 80.3392 14.365 77.7122 1.57789 77.7122C0.769843 77.7122 0.114746 77.0571 0.114746 76.249C0.114746 75.441 0.769843 74.7859 1.57789 74.7859C14.8585 74.7859 23.0127 77.6174 30.2069 80.1152C42.0213 84.2175 45.9244 84.2175 50.0567 84.2175C58.0918 84.2175 63.8305 82.2249 69.9062 80.1152C77.1006 77.6172 85.2548 74.7859 98.5354 74.7859C99.3437 74.7859 99.9986 75.441 99.9986 76.249C99.9986 77.0571 99.3437 77.7122 98.5354 77.7122C85.7483 77.7122 78.1827 80.3392 70.8662 82.8796C64.5507 85.0728 58.5856 87.144 50.0567 87.144ZM65.0306 75.8758C57.2276 75.8758 52.0292 73.2642 50.0567 72.0674C48.0841 73.2642 42.8857 75.8758 35.0827 75.8758C24.6313 75.8758 14.4231 72.2033 1.98308 63.9682C1.55136 63.6824 1.30282 63.1896 1.32954 62.6726C1.35627 62.1557 1.65436 61.6912 2.1132 61.4514C5.20668 59.8351 8.55083 58.3341 11.8739 57.0682C9.99212 54.8335 8.23967 52.3649 6.66845 49.7242C6.25526 49.0297 6.48331 48.1317 7.17762 47.7187C7.87193 47.3053 8.77011 47.5336 9.1831 48.2279C12.1543 53.2217 15.7951 57.5507 19.7121 60.7471C25.6148 65.564 34.2456 68.1937 46.0153 68.7468C41.9298 65.0298 38.8623 61.4807 36.691 57.967C36.2663 57.2797 36.4791 56.378 37.1666 55.9531C37.8541 55.5284 38.7557 55.7414 39.1804 56.4287C41.2915 59.8453 44.3442 63.3285 48.4677 67.0184C48.2102 63.1761 47.5672 59.8525 46.5203 56.9268C44.9265 52.4724 42.3988 48.8766 38.7926 45.9341C37.7417 45.0765 36.6233 44.2544 35.4525 43.4698C35.4461 43.7271 35.443 43.9828 35.443 44.2374C35.443 46.3584 35.7791 48.4913 36.442 50.5769C36.6869 51.3471 36.261 52.1698 35.491 52.4144C34.7212 52.6595 33.8981 52.2334 33.6535 51.4634C32.8993 49.0908 32.5169 46.6596 32.5169 44.2374C32.5169 43.4025 32.5487 42.5548 32.6117 41.6962C23.3106 36.2795 11.634 32.9868 3.19807 32.3189C3.62082 35.504 4.73262 39.1906 6.39865 42.888C6.73068 43.6247 6.40255 44.491 5.66571 44.8231C4.92887 45.1553 4.0625 44.827 3.73066 44.0901C1.59486 39.3503 0.345337 34.7691 0.117477 30.8419C0.0934818 30.4299 0.244673 30.027 0.533595 29.7324C0.822322 29.4378 1.21815 29.2798 1.63485 29.2949C6.97005 29.5013 13.2309 30.7159 19.4805 32.7424C19.5927 27.1832 20.6159 21.9706 22.4109 17.8993C22.7258 17.1849 23.5461 16.8441 24.2745 17.1237C28.4794 18.7394 33.1115 21.3601 37.4465 24.5656C37.476 24.5041 37.5052 24.4429 37.5351 24.3812C40.5792 18.0599 44.6795 12.404 49.0803 8.45542C49.6362 7.95659 50.4788 7.95659 51.0346 8.45542C51.9347 9.26327 52.8394 10.1632 53.7227 11.1306C54.2676 11.7274 54.2256 12.6529 53.6291 13.1978C53.0321 13.7426 52.1068 13.7007 51.5619 13.1041C51.0643 12.5592 50.5608 12.0386 50.0561 11.5467C46.3042 15.1853 42.8246 20.1418 40.1717 25.6508C37.7955 30.585 36.2799 35.522 35.705 40.1463C37.4947 41.2686 39.1475 42.4458 40.6436 43.6664C45.94 47.9883 48.6794 53.3269 50.0844 58.5364C51.7658 52.3288 54.877 47.4158 59.4715 43.6664C60.0975 43.1557 61.0193 43.2485 61.5302 43.875C62.0412 44.501 61.9479 45.4228 61.3219 45.9337C55.514 50.6731 52.336 57.5862 51.6564 67.0026C60.4077 59.1219 64.6715 51.6532 64.6715 44.2372C64.6715 36.2774 61.1338 26.2236 55.4391 17.9996C54.9791 17.3353 55.1447 16.4237 55.8089 15.9637C56.473 15.5037 57.3849 15.6693 57.8449 16.3336C59.672 18.9721 61.2788 21.7548 62.6336 24.5913C66.9784 21.374 71.6238 18.7436 75.8403 17.1235C76.5694 16.8437 77.3889 17.1847 77.704 17.8991C79.5038 21.9813 80.5279 27.2111 80.6351 32.7869C86.8075 30.7738 93.1015 29.5026 98.48 29.2947C98.8899 29.2794 99.2922 29.4377 99.5813 29.7322C99.87 30.0268 100.021 30.4297 99.9974 30.8417C99.7093 35.8015 97.8559 41.7066 94.7789 47.4688C92.9133 50.9626 90.7158 54.201 88.2712 57.0789C91.5841 58.3429 94.9178 59.8394 98.0017 61.4508C98.4605 61.6906 98.7586 62.1551 98.7853 62.672C98.8121 63.1892 98.5633 63.6818 98.1316 63.9676C96.097 65.3145 94.1979 66.4942 92.3259 67.5742C91.6255 67.9778 90.731 67.7378 90.3274 67.0381C89.9236 66.3381 90.1635 65.4434 90.8635 65.0394C92.017 64.374 93.1825 63.6685 94.3865 62.9067C91.7199 61.6137 88.9206 60.4245 86.1578 59.4127C84.9056 60.7093 83.6006 61.9134 82.2526 63.0134C74.7032 69.1739 64.6126 71.042 56.1238 71.5795C58.4149 72.3231 61.4165 72.9486 65.0318 72.9486C71.5496 72.9486 78.1228 71.3471 85.1268 68.0523C85.8576 67.7084 86.7296 68.0223 87.0736 68.7534C87.4175 69.4846 87.1034 70.3563 86.3722 70.7002C78.9691 74.1833 71.9886 75.8758 65.0306 75.8758V75.8758ZM5.72931 62.9071C16.6999 69.8385 25.8329 72.9495 35.0827 72.9495C38.7235 72.9495 41.7421 72.3153 44.0392 71.5646C32.5438 70.7929 23.9437 67.977 17.8623 63.0144C16.53 61.9272 15.2292 60.7196 13.9732 59.4077C11.2054 60.4206 8.4012 61.6116 5.72931 62.9071V62.9071ZM67.4991 41.7279C67.5638 42.5788 67.5966 43.4159 67.5966 44.2376C67.5966 52.3852 63.1676 60.4321 54.0822 68.7513C65.9786 68.2148 74.4063 65.6391 80.401 60.7471C89.9361 52.9663 95.8122 40.7237 96.9168 32.3175C87.7222 33.0321 76.2018 36.7007 67.4991 41.7279V41.7279ZM63.8556 27.3313C65.4267 31.108 66.5404 34.9264 67.1247 38.5794C70.3934 36.7781 74.002 35.1599 77.7173 33.7976C77.721 28.8399 76.9654 24.1627 75.5592 20.3956C71.7744 22.0139 67.6871 24.4341 63.8556 27.3313V27.3313ZM22.3961 33.7483C26.2127 35.1429 29.7715 36.7563 32.9765 38.5372C33.5462 34.8965 34.6388 31.1097 36.2226 27.3048C32.4012 24.4191 28.3272 22.0088 24.5541 20.3956C23.1528 24.1502 22.3974 28.8087 22.3961 33.7483ZM50.0567 3.97781C49.1961 3.97781 48.496 3.27765 48.496 2.41713C48.496 1.55661 49.1961 0.856445 50.0567 0.856445C50.9172 0.856445 51.6173 1.55661 51.6173 2.41713C51.6173 3.27765 50.9172 3.97781 50.0567 3.97781Z" fill="#841F65"/>
</svg>
