<svg width="67" height="88" viewBox="0 0 67 88" fill="none" xmlns="http://www.w3.org/2000/svg">
<path d="M2.59258 62.7767C3.30174 62.7141 3.82579 62.0883 3.76322 61.3792C3.08259 53.6764 4.01743 46.856 6.54194 41.1074C6.82227 40.4689 7.15777 39.7599 7.54621 38.9391C9.32564 35.1786 12.0145 29.4959 13.609 21.396C14.9027 14.8244 15.2122 8.01638 14.5288 1.16146C14.4582 0.452817 13.8252 -0.0650446 13.1182 0.00662757C12.4098 0.0772685 11.8928 0.70874 11.9634 1.41721C12.6217 8.02033 12.3244 14.5746 11.0795 20.8979C9.54667 28.6831 6.94034 34.1915 5.21574 37.8365C4.81888 38.6751 4.47633 39.3992 4.18122 40.0709C1.48054 46.2209 0.475756 53.4665 1.19506 61.6062C1.25435 62.2767 1.8169 62.7818 2.47759 62.7818C2.51558 62.7817 2.55391 62.7799 2.59258 62.7767V62.7767ZM64.0741 74.765L55.3565 66.0473C56.9146 56.0438 56.0959 47.3065 52.9181 40.0707C52.6232 39.399 52.2806 38.6747 51.884 37.8361C50.1597 34.1912 47.5541 28.6831 46.0209 20.8988C44.7755 14.5745 44.4778 8.01999 45.1365 1.41721C45.2071 0.708912 44.6901 0.0772685 43.9816 0.00662757C43.2731 -0.0650446 42.6417 0.452989 42.571 1.16146C41.8871 8.01604 42.1969 14.8242 43.4913 21.3969C45.0861 29.4957 47.7744 35.1782 49.5533 38.9385C49.9418 39.7596 50.2771 40.4686 50.5574 41.1071C53.3363 47.4345 54.1799 55.0481 53.0756 63.7677C52.1027 62.809 50.5315 62.8119 49.5638 63.7794L49.503 63.8402L44.9343 59.2716C45.8752 57.1252 46.3985 54.7557 46.3985 52.2661C46.3985 48.7004 45.3331 45.2691 43.317 42.3432C42.9129 41.7568 42.1102 41.609 41.5241 42.0131C40.9379 42.417 40.7901 43.2198 41.194 43.8059C42.912 46.2998 43.8202 49.2251 43.8202 52.2663C43.8202 60.4993 37.1222 67.1975 28.8892 67.1975C20.6562 67.1975 13.9584 60.4991 13.9584 52.266C13.9584 44.0328 20.6565 37.3349 28.8896 37.3349C31.891 37.3349 34.7849 38.2215 37.2582 39.8986C37.8474 40.2984 38.649 40.1444 39.0484 39.5552C39.4481 38.966 39.2944 38.1644 38.705 37.765C35.8031 35.797 32.4089 34.7568 28.8896 34.7568C19.2348 34.7568 11.3802 42.6114 11.3802 52.266C11.3802 61.3716 18.367 68.8746 27.2609 69.699V86.7114C27.2609 87.4235 27.8379 88.0005 28.5499 88.0005C29.262 88.0005 29.839 87.4235 29.839 86.7114V69.7471C32.8767 69.5836 35.7115 68.6443 38.1464 67.1215L42.184 71.1591L42.1233 71.2197C41.152 72.1915 41.152 73.7726 42.1235 74.7442L48.766 81.3867C48.2161 82.9777 47.6182 84.6057 46.9776 86.2418C46.7181 86.9048 47.0453 87.6526 47.7082 87.9121C48.3557 88.1655 49.1159 87.8521 49.3785 87.1815C49.874 85.9156 50.3438 84.6542 50.7882 83.4091L53.1091 85.73C56.1322 88.7529 61.0509 88.7531 64.0739 85.73C67.0968 82.7067 67.0968 77.788 64.0741 74.765V74.765ZM40.2497 65.5782C41.5731 64.4471 42.7268 63.123 43.6659 61.6493L47.6799 65.6632L46.1058 67.2372L44.0067 69.3356L40.2497 65.5782ZM62.2508 83.9066C60.2588 85.8984 56.8977 85.8917 54.9323 83.9066L44.0076 72.9818L51.3262 65.663L62.251 76.5879C64.2686 78.6057 64.2686 81.8889 62.2508 83.9066V83.9066ZM4.55213 67.2301C4.42683 66.5294 3.75841 66.0621 3.05647 66.1881C2.35573 66.3134 1.88909 66.9828 2.01439 67.6837C3.08534 73.6786 5.0052 80.2384 7.721 87.1811C7.98329 87.8518 8.74195 88.1658 9.39112 87.9119C10.054 87.6526 10.3813 86.9051 10.1219 86.2418C7.46749 79.456 5.5937 73.0595 4.55213 67.2301V67.2301ZM31.8857 48.3039L26.3329 53.8567L24.9275 52.4511C24.4239 51.9478 23.6078 51.9478 23.1044 52.4511C22.601 52.9547 22.601 53.7707 23.1044 54.2742L24.8685 56.0383C25.6762 56.8456 26.9896 56.8454 27.7976 56.0383L33.709 50.127C34.2124 49.6234 34.2124 48.8073 33.709 48.3039C33.2054 47.8006 32.3893 47.8006 31.8857 48.3039V48.3039ZM28.8896 41.0777C22.7201 41.0777 17.701 46.0968 17.701 52.2661C17.701 58.4356 22.7201 63.4547 28.8896 63.4547C35.0589 63.4547 40.078 58.4356 40.078 52.2661C40.0778 46.0968 35.0587 41.0777 28.8896 41.0777V41.0777ZM28.8896 60.8764C24.1418 60.8764 20.2791 57.0137 20.2791 52.266C20.2791 47.5182 24.1418 43.6557 28.8896 43.6557C33.6373 43.6557 37.4998 47.5182 37.4998 52.266C37.4998 57.0137 33.6373 60.8764 28.8896 60.8764V60.8764Z" fill="#841F65"/>
</svg>
