<svg width="76" height="80" viewBox="0 0 76 80" fill="none" xmlns="http://www.w3.org/2000/svg">
<path d="M71.4527 4.985C70.9758 4.54733 70.2345 4.5792 69.7968 5.05626C69.3593 5.53316 69.391 6.27444 69.8681 6.71212C72.5263 9.15114 73.4837 12.699 72.4287 16.2027C71.4461 19.4662 68.9477 21.8013 65.7471 22.5455C65.7908 22.0143 65.7541 21.4816 65.6383 20.9651C68.5919 20.1843 70.2975 17.8616 70.9325 15.7521C71.6658 13.3163 71.371 9.85993 68.3436 7.4645C67.8439 7.06901 67.3153 6.71962 66.7726 6.42601C65.4513 5.71129 63.9228 5.41628 62.3494 5.57285C59.2113 5.88739 56.0683 6.68743 52.991 7.95405C52.7372 7.49137 52.4582 7.04417 52.1528 6.6104C55.4485 5.2272 58.8196 4.35622 62.1941 4.01824C63.5931 3.87776 64.9519 4.03449 66.2332 4.48467C66.8432 4.69905 67.5126 4.37794 67.7273 3.76729C67.942 3.15664 67.6206 2.48785 67.01 2.27316C65.4024 1.7086 63.7031 1.51062 61.9603 1.68578C58.1234 2.07018 54.2973 3.09616 50.5751 4.73765C49.3579 3.52462 47.922 2.5377 46.3221 1.8247C40.8631 -0.608389 35.3269 -0.608076 29.8679 1.8247C28.2681 2.53754 26.8321 3.52447 25.6149 4.73765C21.8925 3.09616 18.0664 2.07033 14.2298 1.68578C11.8779 1.45015 9.57096 1.90079 7.55789 2.99038C6.81708 3.39118 6.0986 3.86589 5.42216 4.40091C1.60511 7.42122 0.108629 12.2024 1.51666 16.8785C2.89251 21.4481 6.64285 24.565 11.3423 25.071C12.2873 26.4468 13.8716 27.3511 15.6633 27.3511C18.5519 27.3511 20.9018 25.0011 20.9018 22.1127C20.9018 19.2243 18.5519 16.8743 15.6633 16.8743C14.031 16.8743 12.5706 17.6248 11.6092 18.7989C9.29298 18.3811 7.97354 16.6445 7.50164 15.0767C6.99021 13.3782 7.19428 10.9697 9.30063 9.30302C9.69456 8.99129 10.1091 8.71706 10.5326 8.48783C11.4403 7.99687 12.5036 7.7953 13.6066 7.9053C16.498 8.19485 19.3999 8.93145 22.248 10.0974C21.6773 11.7492 21.4273 13.4953 21.517 15.2624C21.5603 16.1163 21.6581 16.982 21.8078 17.8352C23.015 24.7178 27.4923 28.9115 27.6109 29.078C28.5353 30.0557 29.0186 31.3347 28.9717 32.6793C28.925 34.0237 28.354 35.266 27.3642 36.177C24.5812 38.7385 24.1951 42.9509 26.4658 45.9754L28.3592 48.4974C29.6632 50.2341 29.6982 52.5935 28.4467 54.3683L26.8977 56.5645C25.856 58.0419 25.3975 59.8444 25.6067 61.6399L27.4156 77.1536C27.6048 78.7767 28.9795 80.0005 30.6135 80.0005H45.5766C47.2106 80.0005 48.5853 78.7765 48.7744 77.1536L48.8621 76.4016C50.7837 77.5719 53.0388 78.2466 55.4488 78.2466C57.5986 78.2466 59.7252 77.6972 61.5988 76.6581C62.1647 76.3442 62.3691 75.6309 62.0552 75.0649C61.7413 74.499 61.0278 74.2943 60.462 74.6085C58.9354 75.4553 57.2018 75.9028 55.4488 75.9028C49.7388 75.9028 45.0934 71.2574 45.0934 65.5474C45.0934 59.8375 49.7388 55.1921 55.4488 55.1921C61.1587 55.1921 65.8041 59.8375 65.8041 65.5474C65.8041 67.8488 65.0631 70.0289 63.661 71.8523C63.2665 72.3653 63.3626 73.1011 63.8757 73.4956C64.3886 73.89 65.1246 73.7939 65.5191 73.2809C67.239 71.0444 68.148 68.3701 68.148 65.5476C68.148 58.5452 62.4511 52.8484 55.4488 52.8484C52.779 52.8484 50.2988 53.6766 48.2519 55.0896L47.7434 54.3686C46.4918 52.5938 46.5269 50.2344 47.8309 48.4977L49.7243 45.9757C51.9949 42.9512 51.6089 38.7388 48.826 36.1773C47.8361 35.2663 47.2651 34.0242 47.2184 32.6796C47.1717 31.335 47.655 30.0561 48.5791 29.0787C48.7061 28.9002 53.1734 24.727 54.3825 17.8356C54.5322 16.9815 54.63 16.1159 54.6731 15.2627C54.7628 13.4956 54.5128 11.7495 53.9421 10.0978C56.7901 8.93176 59.6918 8.19531 62.5827 7.90561C63.6868 7.79592 64.75 7.99702 65.6576 8.48799C66.0812 8.71737 66.4956 8.9916 66.8895 9.30334C68.9958 10.97 69.1998 13.3785 68.6885 15.0771C68.2166 16.6449 66.8965 18.3821 64.5811 18.7993C63.6196 17.6251 62.1593 16.8746 60.527 16.8746C57.6384 16.8746 55.2885 19.2246 55.2885 22.113C55.2885 25.0014 57.6384 27.3514 60.527 27.3514C62.3186 27.3514 63.9029 26.4473 64.848 25.0714C69.5479 24.5652 73.2979 21.4483 74.6736 16.879C75.9935 12.493 74.7897 8.04687 71.4527 4.985V4.985ZM15.6631 19.2179C17.2593 19.2179 18.5578 20.5164 18.5578 22.1124C18.5578 23.7084 17.2593 25.0069 15.6631 25.0069C14.5443 25.0069 13.5718 24.3689 13.0902 23.4376C13.085 23.427 13.0797 23.4167 13.0743 23.4062C12.117 21.4989 13.5063 19.2179 15.6631 19.2179V19.2179ZM13.8394 5.57285C12.268 5.41628 10.7382 5.71113 9.41689 6.42617C8.87436 6.71978 8.3459 7.06901 7.84603 7.46465C4.81854 9.86008 4.52368 13.3163 5.25716 15.7522C5.89219 17.8616 7.59743 20.184 10.5515 20.9651C10.4357 21.4813 10.3988 22.0139 10.4426 22.5458C7.24225 21.8017 4.74369 19.4666 3.76099 16.2029C2.63625 12.4676 3.83006 8.64971 6.87645 6.23928C7.44679 5.78786 8.05135 5.38846 8.67326 5.05188C10.2722 4.18653 12.1123 3.8287 13.9957 4.01824C17.3701 4.35622 20.7412 5.2272 24.0368 6.6104C23.889 6.82041 23.7465 7.03463 23.6096 7.25339C23.4654 7.48387 23.3283 7.71748 23.1986 7.95405C20.1213 6.68743 16.9782 5.88739 13.8394 5.57285V5.57285ZM52.3321 15.1436C52.2938 15.9013 52.2066 16.6704 52.0736 17.4301C50.9954 23.5759 46.9806 27.3211 46.8759 27.4676C45.5174 28.9044 44.807 30.7842 44.8756 32.7604C44.9444 34.7366 45.7836 36.5623 47.2384 37.9013C49.1318 39.6439 49.3946 42.5099 47.8495 44.5678L45.9561 47.0898C44.0398 49.6425 43.9881 53.1101 45.8279 55.7188L46.4474 56.5973C44.1629 58.8948 42.7493 62.059 42.7493 65.5471C42.7493 69.1601 44.2659 72.4256 46.6959 74.7402L46.4462 76.882C46.3948 77.3235 46.0207 77.6563 45.5764 77.6563H30.6134C30.169 77.6563 29.7951 77.3235 29.7436 76.882L27.9348 61.3683C27.7923 60.1467 28.1042 58.9201 28.8131 57.9149L30.3621 55.7187C32.2016 53.1101 32.15 49.6423 30.2335 47.0897L28.3401 44.5677C26.7952 42.5098 27.0579 39.6437 28.9513 37.9011C30.4063 36.5621 31.2453 34.7364 31.314 32.7604C31.432 29.3638 29.203 27.3781 29.148 27.2922C26.4958 24.4872 24.7561 21.0769 24.1162 17.4298C23.9831 16.671 23.896 15.9018 23.8576 15.1433C23.618 10.4206 26.4166 5.92864 30.8218 3.96558C35.7158 1.78438 40.474 1.78454 45.3678 3.96558C49.773 5.9288 52.5716 10.4207 52.3321 15.1436V15.1436ZM60.5267 25.0071C58.9305 25.0071 57.632 23.7086 57.632 22.1125C57.632 20.5165 58.9307 19.218 60.5267 19.218C62.6215 19.218 64.095 21.4103 63.1009 23.4354C62.6197 24.368 61.6464 25.0071 60.5267 25.0071Z" fill="#841F65"/>
<path d="M40.2827 68.8248C38.7898 69.7116 37.3994 69.7112 35.9067 68.8248C35.3501 68.4946 34.631 68.6778 34.3007 69.2342C33.9702 69.7908 34.1535 70.5097 34.7101 70.8402C35.8172 71.4976 36.956 71.8263 38.0948 71.8263C39.2336 71.8263 40.3724 71.4976 41.4795 70.8402C42.0361 70.5097 42.2192 69.7906 41.8889 69.2342C41.5581 68.6778 40.839 68.4946 40.2827 68.8248Z" fill="#841F65"/>
<path d="M42.7189 7.97373C39.6514 6.59851 36.5408 6.59835 33.4733 7.97279C30.4719 9.31739 28.567 12.3994 28.7332 15.6419C28.7576 16.1163 28.8121 16.597 28.8951 17.0704C29.2726 19.2222 30.2516 20.93 31.0065 21.9836C32.6884 24.3315 33.5867 27.0376 33.646 29.8585L33.8974 41.8286C33.911 42.4759 34.4449 42.9909 35.0937 42.9757C35.7407 42.9621 36.2544 42.4265 36.2408 41.7796L35.9893 29.8095C35.9206 26.5409 34.887 23.3756 32.9119 20.6189C32.2989 19.763 31.5049 18.3825 31.2036 16.6654C31.1371 16.2857 31.0933 15.901 31.074 15.5219C30.9569 13.2382 32.3062 11.0642 34.4316 10.112C36.8975 9.00706 39.2947 9.00738 41.7602 10.1126C43.8849 11.065 45.2337 13.239 45.1164 15.5222C45.0968 15.9018 45.0532 16.2865 44.9867 16.6654C44.6854 18.3834 43.8924 19.7629 43.2803 20.6175C41.2877 23.3987 40.2691 26.5726 40.2011 29.8093L39.5341 61.5644C39.5178 62.3413 38.8723 62.9734 38.0951 62.9734C37.318 62.9734 36.6725 62.3413 36.6563 61.5644L36.3391 46.4654C36.3255 45.8182 35.7923 45.3077 35.1427 45.3183C34.4957 45.3319 33.9821 45.8676 33.9957 46.5145L34.3129 61.6135C34.3558 63.6556 36.0525 65.3171 38.0951 65.3171C40.1378 65.3171 41.8345 63.6556 41.8773 61.6135L42.5443 29.8584C42.602 27.1142 43.4569 24.3953 45.1857 21.9824C45.9397 20.9297 46.9177 19.223 47.2952 17.0703C47.3782 16.5976 47.4327 16.1169 47.4571 15.6422C47.6237 12.4005 45.7195 9.3188 42.7189 7.97373Z" fill="#841F65"/>
<path d="M61.5541 61.7913H59.2046V59.4418C59.2046 58.4249 58.3772 57.5975 57.3603 57.5975H53.5371C52.52 57.5975 51.6927 58.4249 51.6927 59.4418V61.7913H49.3433C48.3264 61.7913 47.499 62.6187 47.499 63.6356V67.4588C47.499 68.4757 48.3264 69.3031 49.3433 69.3031H51.6927V71.6526C51.6927 72.6695 52.52 73.4969 53.5371 73.4969H57.3603C58.3772 73.4969 59.2046 72.6695 59.2046 71.6526V69.3031H61.5541C62.571 69.3031 63.3984 68.4757 63.3984 67.4588V63.6356C63.3984 62.6187 62.571 61.7913 61.5541 61.7913ZM61.0545 66.9592H58.7052C57.6881 66.9592 56.8607 67.7866 56.8607 68.8037V71.153H54.0367V68.8037C54.0367 67.7866 53.2093 66.9592 52.1924 66.9592H49.843V64.1354H52.1924C53.2093 64.1354 54.0367 63.308 54.0367 62.2909V59.9416H56.8607V62.2909C56.8607 63.308 57.6881 64.1354 58.7052 64.1354H61.0545V66.9592Z" fill="#841F65"/>
</svg>
