<svg width="80" height="80" viewBox="0 0 80 80" fill="none" xmlns="http://www.w3.org/2000/svg">
<path d="M19.4494 55.8305V65.487H12.4985C11.2178 65.487 10.1815 66.5233 10.1815 67.804C10.1815 69.0847 11.2178 70.121 12.4985 70.121H19.4494V77.2264C19.4494 78.5071 20.4857 79.5434 21.7664 79.5434C23.0471 79.5434 24.0834 78.5071 24.0834 77.2264V70.121H31.0343C32.315 70.121 33.3513 69.0847 33.3513 67.804C33.3513 66.5233 32.315 65.487 31.0343 65.487H24.0834V55.8398C25.6594 55.6376 27.1985 55.3177 28.6577 54.8024C27.3278 53.6953 26.1212 52.4494 25.0397 51.0978C23.9819 51.3156 22.8875 51.4307 21.7664 51.4307C12.8242 51.4307 5.54754 44.154 5.54754 35.2118C5.54754 26.2697 12.8242 18.993 21.7664 18.993C31.0078 18.993 37.9853 26.8755 37.9853 35.2118C37.9853 37.8957 37.2672 40.3914 36.1077 42.6235C37.1206 43.8281 38.3591 44.8166 39.7778 45.5297C41.5356 42.4742 42.6192 38.9828 42.6192 35.2118C42.6192 24.4648 33.7807 14.359 21.7664 14.359C10.2675 14.359 0.913574 23.713 0.913574 35.2118C0.913574 45.9174 9.05158 54.6607 19.4494 55.8305Z" fill="#841F65"/>
<path d="M77.683 0.457031H63.7811C62.5004 0.457031 61.4641 1.49334 61.4641 2.77401C61.4641 4.05468 62.5004 5.09099 63.7811 5.09099H72.0896L57.8799 18.9918C54.3122 16.1379 49.8503 14.3589 44.9363 14.3589C42.5094 14.3589 40.2132 14.8555 38.045 15.6212C39.3749 16.7283 40.5815 17.9742 41.663 19.3257C42.7208 19.1079 43.8152 18.9929 44.9363 18.9929C53.8785 18.9929 61.1552 26.2696 61.1552 35.2117C61.1552 44.1539 53.8785 51.4306 44.9363 51.4306C35.7575 51.4306 28.7175 43.6346 28.7175 35.2117C28.7175 32.5279 29.4356 30.0322 30.595 27.8C29.5822 26.5955 28.3437 25.6069 26.9249 24.8939C25.1671 27.9494 24.0835 31.4408 24.0835 35.2117C24.0835 46.0635 33.1594 56.0646 44.9363 56.0646C56.4352 56.0646 65.7891 46.7106 65.7891 35.2117C65.7891 30.2977 64.0102 25.8358 61.1563 22.2682L75.366 8.36736V16.6759C75.366 17.9566 76.4023 18.9929 77.683 18.9929C78.9636 18.9929 80 17.9566 80 16.6759V2.77401C80 1.50631 78.9609 0.457031 77.683 0.457031V0.457031Z" fill="#841F65"/>
</svg>
