<svg width="174" height="178" viewBox="0 0 174 178" fill="none" xmlns="http://www.w3.org/2000/svg">
<rect x="4" y="4" width="136" height="170" stroke="#F6BE2D" stroke-width="8"/>
<path d="M44.4496 108.414L49.7024 100.81C53.0997 104.521 57.0459 106.376 61.5408 106.376C64.3632 106.376 66.7936 105.514 68.832 103.789C70.9227 102.012 71.968 99.7121 71.968 96.8897C71.968 94.015 70.9227 91.6891 68.832 89.9121C66.7413 88.135 64.0757 87.2465 60.8352 87.2465C57.7515 87.2465 54.8768 88.0305 52.2112 89.5985L46.5664 87.5601L49.1536 59.3361H78.4752V68.0385H57.9344L57.072 77.2113L56.68 79.7985H56.8368C58.4048 78.9622 60.3909 78.5441 62.7952 78.5441C68.7536 78.5441 73.5099 80.295 77.064 83.7969C80.6181 87.2987 82.3952 91.6369 82.3952 96.8113C82.3952 102.299 80.4875 106.873 76.672 110.531C72.8565 114.138 68.0741 115.941 62.3248 115.941C58.9275 115.941 55.6608 115.288 52.5248 113.981C49.3888 112.674 46.6971 110.819 44.4496 108.414Z" fill="black"/>
<path d="M116.68 113.746C114.015 115.209 110.853 115.941 107.194 115.941C103.535 115.941 100.347 115.209 97.6293 113.746C94.9637 112.282 92.873 110.192 91.3573 107.474C89.8416 104.756 88.7178 101.724 87.9861 98.3793C87.3066 95.0342 86.9669 91.271 86.9669 87.0897C86.9669 82.9083 87.3066 79.1451 87.9861 75.8001C88.7178 72.455 89.8416 69.4497 91.3573 66.7841C92.873 64.1185 94.9637 62.0539 97.6293 60.5905C100.295 59.127 103.483 58.3953 107.194 58.3953C120.627 58.3953 127.343 67.9601 127.343 87.0897C127.343 91.271 126.977 95.0342 126.245 98.3793C125.566 101.724 124.468 104.756 122.952 107.474C121.489 110.192 119.398 112.282 116.68 113.746ZM97.3941 87.0897C97.3941 100.156 100.661 106.69 107.194 106.69C113.727 106.69 116.994 100.156 116.994 87.0897C116.994 74.1798 113.727 67.7249 107.194 67.7249C100.661 67.7249 97.3941 74.1798 97.3941 87.0897Z" fill="black"/>
<path d="M162.774 113.746C160.109 115.209 156.946 115.941 153.288 115.941C149.629 115.941 146.441 115.209 143.723 113.746C141.057 112.282 138.967 110.192 137.451 107.474C135.935 104.756 134.812 101.724 134.08 98.3793C133.4 95.0342 133.061 91.271 133.061 87.0897C133.061 82.9083 133.4 79.1451 134.08 75.8001C134.812 72.455 135.935 69.4497 137.451 66.7841C138.967 64.1185 141.057 62.0539 143.723 60.5905C146.389 59.127 149.577 58.3953 153.288 58.3953C166.72 58.3953 173.437 67.9601 173.437 87.0897C173.437 91.271 173.071 95.0342 172.339 98.3793C171.66 101.724 170.562 104.756 169.046 107.474C167.583 110.192 165.492 112.282 162.774 113.746ZM143.488 87.0897C143.488 100.156 146.754 106.69 153.288 106.69C159.821 106.69 163.088 100.156 163.088 87.0897C163.088 74.1798 159.821 67.7249 153.288 67.7249C146.754 67.7249 143.488 74.1798 143.488 87.0897Z" fill="black"/>
</svg>
